<?xml version="1.0" encoding="UTF-8" standalone="no"?>
<svg
   xmlns:dc="http://purl.org/dc/elements/1.1/"
   xmlns:cc="http://creativecommons.org/ns#"
   xmlns:rdf="http://www.w3.org/1999/02/22-rdf-syntax-ns#"
   xmlns:svg="http://www.w3.org/2000/svg"
   xmlns="http://www.w3.org/2000/svg"
   xmlns:sodipodi="http://sodipodi.sourceforge.net/DTD/sodipodi-0.dtd"
   xmlns:inkscape="http://www.inkscape.org/namespaces/inkscape"
   inkscape:output_extension="org.inkscape.output.svg.inkscape"
   sodipodi:docname="glasses.svg"
   inkscape:version="1.0 (4035a4f, 2020-05-01)"
   sodipodi:version="0.32"
   id="svg2"
   version="1.1"
   viewBox="0 0 80 80"
   height="80pt"
   width="80pt">
  <metadata
     id="metadata17">
    <rdf:RDF>
      <cc:Work
         rdf:about="">
        <dc:format>image/svg+xml</dc:format>
        <dc:type
           rdf:resource="http://purl.org/dc/dcmitype/StillImage" />
      </cc:Work>
    </rdf:RDF>
  </metadata>
  <defs
     id="defs15">
    <inkscape:perspective
       id="perspective19"
       inkscape:persp3d-origin="50 : 33.333333 : 1"
       inkscape:vp_z="100 : 50 : 1"
       inkscape:vp_y="0 : 1000 : 0"
       inkscape:vp_x="0 : 50 : 1"
       sodipodi:type="inkscape:persp3d" />
  </defs>
  <sodipodi:namedview
     inkscape:window-maximized="0"
     inkscape:document-rotation="0"
     inkscape:current-layer="svg2"
     inkscape:window-y="0"
     inkscape:window-x="0"
     inkscape:cy="63.882795"
     inkscape:cx="38.224912"
     inkscape:zoom="6.5336667"
     showgrid="false"
     id="base"
     pagecolor="#ffffff"
     bordercolor="#666666"
     borderopacity="1.0"
     objecttolerance="10.0"
     gridtolerance="10.0"
     guidetolerance="10.0"
     inkscape:pageopacity="0.0"
     inkscape:pageshadow="2"
     inkscape:window-width="1440"
     inkscape:window-height="878" />
  <g
     id="glasses">
    <path
       id="frames"
       d="M 7.1122052,34.763263 C 10.358503,33.650658 23.81,32.15 30.53,33.28 c 3.44,0.2 4.93,4.52 8.54,4.09 4.18,1.01 6.05,-3.83 9.88,-4.14 6.65,-1.06 13.49,-0.66 20.09,0.53 0,0 5.782309,1.254204 4.51,10.65 -0.24,4.11 -1.89,9.21 -6.37,10.33 -5.02,0.93 -10.22,0.58 -15.26,-0.06 -3.52,-0.34 -6.81,-2.6 -8.5,-5.69 -1.39,-2.39 -0.84,-5.24 -0.91,-7.88 -1.84,-0.99 -3.87,-0.9 -5.8,-0.21 -0.04,3.3 0.46,7.1 -2,9.74 -3.49,4.43 -9.54,4.51 -14.68,4.61 C 16.32,55.14 11.94,55.84 8.98,53.04 6.51,50.81 5.8943702,43.296889 5.4352099,40.427138 M 8.31,40.89 c -0.24,4.01 -0.06,9.43 4.09,11.46 4.18,0.5 8.42,0.19 12.62,0.17 3.2,0.09 6.4,-1.51 8.28,-4.1 1.61,-3.36 0.56,-7.12 0.13,-10.62 -4.83,-3.2 -10.94,-1.88 -16.39,-2.01 -3.27,0.12 -8.84,0.72 -8.73,5.1 m 37.41,-3.01 c -0.12,4.06 -1.97,9.45 1.9,12.35 3.45,3.01 8.21,2.23 12.41,2.38 2.36,-0.07 4.77,0.19 7.1,-0.34 3.37,-1.81 3.57,-5.94 4.03,-9.28 -0.37,-1.62 -0.09,-3.53 -1.14,-4.91 -3.07,-2.55 -7.33,-2.23 -11.07,-2.39 -4.45,0.11 -9.41,-0.66 -13.23,2.19 z"
       opacity="1"
       fill="gey" />
    <path
       id="lens-left"
       d=" M 45.72 37.88 C 49.54 35.03 54.50 35.80 58.95 35.69 C 62.69 35.85 66.95 35.53 70.02 38.08 C 71.07 39.46 70.79 41.37 71.16 42.99 C 70.70 46.33 70.50 50.46 67.13 52.27 C 64.80 52.80 62.39 52.54 60.03 52.61 C 55.83 52.46 51.07 53.24 47.62 50.23 C 43.75 47.33 45.60 41.94 45.72 37.88 Z"
       opacity="0.05"
       fill="#ffffff" />
    <path
       id="lens-right"
       d=" M 8.31 40.89 C 8.20 36.51 13.77 35.91 17.04 35.79 C 22.49 35.92 28.60 34.60 33.43 37.80 C 33.86 41.30 34.91 45.06 33.30 48.42 C 31.42 51.01 28.22 52.61 25.02 52.52 C 20.82 52.54 16.58 52.85 12.40 52.35 C 8.25 50.32 8.07 44.90 8.31 40.89 Z"
       opacity="0.05"
       fill="#ffffff" />
  </g>
</svg>
