<?xml version="1.0" encoding="UTF-8" standalone="no"?>
<svg
   xmlns:dc="http://purl.org/dc/elements/1.1/"
   xmlns:cc="http://creativecommons.org/ns#"
   xmlns:rdf="http://www.w3.org/1999/02/22-rdf-syntax-ns#"
   xmlns:svg="http://www.w3.org/2000/svg"
   xmlns="http://www.w3.org/2000/svg"
   xmlns:sodipodi="http://sodipodi.sourceforge.net/DTD/sodipodi-0.dtd"
   xmlns:inkscape="http://www.inkscape.org/namespaces/inkscape"
   xml:space="preserve"
   style="enable-background:new 0 0 1000 1000;"
   viewBox="0 0 1000 1000"
   height="1000px"
   width="1000px"
   y="0px"
   x="0px"
   id="Layer_1"
   version="1.1"
   sodipodi:docname="mom.svg"
   inkscape:version="1.0 (4035a4f, 2020-05-01)"><metadata
     id="metadata2679"><rdf:RDF><cc:Work
         rdf:about=""><dc:format>image/svg+xml</dc:format><dc:type
           rdf:resource="http://purl.org/dc/dcmitype/StillImage" /><dc:title /></cc:Work></rdf:RDF></metadata><defs
     id="defs2677" /><sodipodi:namedview
     inkscape:document-rotation="0"
     pagecolor="#ffffff"
     bordercolor="#666666"
     borderopacity="1"
     objecttolerance="10"
     gridtolerance="10"
     guidetolerance="10"
     inkscape:pageopacity="0"
     inkscape:pageshadow="2"
     inkscape:window-width="1440"
     inkscape:window-height="878"
     id="namedview2675"
     showgrid="false"
     inkscape:zoom="4.518392"
     inkscape:cx="539.82301"
     inkscape:cy="181.41484"
     inkscape:window-x="0"
     inkscape:window-y="0"
     inkscape:window-maximized="1"
     inkscape:current-layer="face-group"
     inkscape:snap-bbox="false"
     inkscape:snap-nodes="false"
     inkscape:snap-global="false" /><style
     id="style4358">
    #skeleton {
     opacity: 0.5;
     color: white;
    }
    .hair {
      fill: #552200
    }
  </style><g
     id="skeleton"><circle
   r="8.1999998"
   cy="294.29999"
   cx="392.79999"
   id="rightShoulder" /><circle
   r="8.1999998"
   cy="294.39999"
   cx="289.29999"
   id="rightElbow" /><circle
   cy="300.79999"
   cx="125.9"
   transform="matrix(0.9951,-0.09853767,0.09853767,0.9951,-29.0274,13.8698)"
   id="rightWrist"
   r="8.1999998" /><circle
   r="8.1999998"
   cy="510.10001"
   cx="443.10001"
   id="rightHip" /><circle
   r="8.1999998"
   cy="670.29999"
   cx="449.5"
   id="rightKnee" /><circle
   r="8.1999998"
   cy="878.29999"
   cx="449.5"
   id="rightAnkle" /><circle
   r="8.1999998"
   cy="294.29999"
   cx="605.70001"
   id="leftShoulder" /><circle
   r="8.1999998"
   cy="294"
   cx="710.09998"
   id="leftElbow" /><circle
   r="8.1999998"
   cy="300.29999"
   cx="873.5"
   id="leftWrist" /><circle
   r="8.1999998"
   cy="509.29999"
   cx="559.5"
   id="leftHip" /><circle
   r="8.1999998"
   cy="670.29999"
   cx="559.5"
   id="leftKnee" /><circle
   r="8.1999998"
   cy="878.29999"
   cx="559.5"
   id="leftAnkle" /><polygon
   id="torso-line-s"
   points="443,510.4 559.4,509.6 605.6,294.6 392.7,294.6 "
   style="fill:none;stroke:#000000;stroke-miterlimit:10" /><polyline
   id="right-arm-line-s"
   points="391.7,294.6 289,294.6 125.7,300.9  "
   style="fill:none;stroke:#000000;stroke-miterlimit:10" /><polyline
   id="left-arm-line-s"
   points="607.1,294.2 710.3,294.2 873.6,300.6  "
   style="fill:none;stroke:#000000;stroke-miterlimit:10" /><polyline
   id="right-leg-line-s"
   points="443,510.4 449.4,670.6 449.4,878.6  "
   style="fill:none;stroke:#000000;stroke-miterlimit:10" /><polyline
   id="left-leg-line-s"
   points="559.4,509.6 559.4,670.6 559.4,878.6  "
   style="fill:none;stroke:#000000;stroke-miterlimit:10" /><g
   transform="matrix(1.0872393,0,0,1.1006144,-42.630034,6.4750399)"
   id="head-s">
      <g
   id="face-s">
        
        <g
   transform="translate(2.2379803,17.120549)"
   id="left-brow-group-s">
          <circle
   r="0.80000001"
   cy="151.60001"
   cx="534.09998"
   id="leftBrow0" />
          <circle
   r="0.80000001"
   cy="148.7"
   cx="530.09998"
   id="leftBrow1" />
          <circle
   r="0.80000001"
   cy="147.2"
   cx="523.79999"
   id="leftBrow2" />
          <circle
   r="0.80000001"
   cy="147.60001"
   cx="516.5"
   id="leftBrow3" />
          <circle
   r="0.80000001"
   cy="150.8"
   cx="506.5"
   id="leftBrow4" />
          <polyline
   points="533.9,151.6 529.9,148.7 523.6,147.2 516.3,147.6    506.3,150.8  "
   style="fill:none;stroke:#000000;stroke-miterlimit:10"
   id="left-brow-s" />
        </g>
        <g
   transform="translate(-2.7974753,16.784852)"
   id="right-brow-group-s">
          <circle
   r="0.80000001"
   cy="152"
   cx="462.39999"
   id="rightBrow0" />
          <circle
   r="0.80000001"
   cy="148.3"
   cx="466.39999"
   id="rightBrow1" />
          <circle
   r="0.80000001"
   cy="147.3"
   cx="472.60001"
   id="rightBrow2" />
          <circle
   r="0.80000001"
   cy="151.3"
   cx="489.70001"
   id="rightBrow4" />
          <circle
   r="0.80000001"
   cy="147.3"
   cx="479.89999"
   id="rightBrow3" />
          <polyline
   points="462.4,152 466.4,148.3 472.6,147.3 479.9,147.3    489.7,151.3  "
   style="fill:none;stroke:#000000;stroke-miterlimit:10"
   id="right-brow-s" />
        </g>
        <g
   transform="matrix(1.1888971,0,0,1,-97.534389,14.136767)"
   id="left-eye-group-s">
          <circle
   r="0.80000001"
   cy="160.2"
   cx="528.20001"
   id="leftEye0" />
          <circle
   r="0.80000001"
   cy="156.5"
   cx="523"
   id="leftEye1" />
          <circle
   r="0.80000001"
   cy="156.5"
   cx="516.70001"
   id="leftEye2" />
          <circle
   r="0.80000001"
   cy="160.7"
   cx="511.5"
   id="leftEye3" />
          <circle
   r="0.80000001"
   cy="161.7"
   cx="516.70001"
   id="leftEye4" />
          <circle
   r="0.80000001"
   cy="162.5"
   cx="523"
   id="leftEye5" />
          <polygon
   id="left-eye-line-s"
   points="516.4,156.5 511.3,160.7 516.4,161.7 522.7,162.5 528,160.2 522.7,156.5 "
   style="fill:none;stroke:#000000;stroke-miterlimit:10" />
        </g>
        <g
   transform="matrix(1.1380842,0,0,1,-67.346548,14.211175)"
   id="right-eye-group-s">
          <circle
   r="0.80000001"
   cy="160.2"
   cx="468.60001"
   id="rightEye0" />
          <circle
   r="0.80000001"
   cy="156.5"
   cx="473.79999"
   id="rightEye1" />
          <circle
   r="0.80000001"
   cy="156.5"
   cx="480.10001"
   id="rightEye2" />
          <circle
   r="0.80000001"
   cy="160.7"
   cx="485.29999"
   id="rightEye3" />
          <circle
   r="0.80000001"
   cy="161.7"
   cx="480.10001"
   id="rightEye4" />
          <circle
   r="0.80000001"
   cy="162.5"
   cx="473.79999"
   id="rightEye5" />
          <polygon
   id="right-eye-line-s"
   points="480.1,156.5 485.3,160.7 480.1,161.7 473.8,162.5 468.6,160.2 473.8,156.5 "
   style="fill:none;stroke:#000000;stroke-miterlimit:10" />
        </g>
        <g
   transform="matrix(1,0,0,1.222608,0.33569704,-18.029182)"
   id="nose-group-s">
          <circle
   r="0.80000001"
   cy="155.39999"
   cx="497.60001"
   id="nose0" />
          <circle
   r="0.80000001"
   cy="161.2"
   cx="497.60001"
   id="nose1" />
          <circle
   r="0.80000001"
   cy="166.7"
   cx="497.60001"
   id="nose2" />
          <circle
   r="0.80000001"
   cy="173.8"
   cx="497.60001"
   id="nose3" />
          <circle
   r="0.80000001"
   cy="179.10001"
   cx="497.60001"
   id="nose4" />
          <circle
   r="0.80000001"
   cy="178.3"
   cx="508"
   id="leftNose0" />
          <circle
   r="0.80000001"
   cy="178.3"
   cx="503.20001"
   id="leftNose1" />
          <circle
   r="0.80000001"
   cy="178.3"
   cx="486.89999"
   id="rightNose0" />
          <circle
   r="0.80000001"
   cy="178.3"
   cx="492.10001"
   id="rightNose1" />
          <polyline
   id="nose-ridge-and-right"
   points="486.9,178.3 492.1,178.3 497.6,179.1 497.6,173.8    497.6,166.7 497.6,161.2 497.6,155.4  "
   style="fill:none;stroke:#000000;stroke-miterlimit:10" />
          <polyline
   id="nose-right"
   points="508,178.3 503,178.3 497.6,179.1  "
   style="fill:none;stroke:#000000;stroke-miterlimit:10" />
        </g>
        <g
   transform="matrix(1,0,0,0.70041751,-0.20505338,69.997698)"
   id="mouth-group-s">
          <circle
   r="0.80000001"
   cy="206.7"
   cx="509.5"
   id="leftLowerLipBottom0" />
          <circle
   r="0.80000001"
   cy="209.5"
   cx="502.60001"
   id="leftLowerLipBottom1" />
          <circle
   r="0.80000001"
   cy="202.8"
   cx="502.39999"
   id="leftLowerLipTop0" />
          <circle
   r="0.80000001"
   cy="200.39999"
   cx="515.90002"
   id="leftMouthCorner" />
          <circle
   r="0.80000001"
   cy="199.89999"
   cx="502.39999"
   id="leftUpperLipBottom1" />
          <circle
   r="0.80000001"
   cy="197"
   cx="509"
   id="leftUpperLipTop0" />
          <circle
   r="0.80000001"
   cy="195.89999"
   cx="502.60001"
   id="leftUpperLipTop1" />
          <circle
   r="0.80000001"
   cy="210"
   cx="498.39999"
   id="lowerLipBottomMid" />
          <circle
   r="0.80000001"
   cy="203.5"
   cx="498.39999"
   id="lowerLipTopMid" />
          <circle
   r="0.80000001"
   cy="206.7"
   cx="487.29999"
   id="rightLowerLipBottom0" />
          <circle
   r="0.80000001"
   cy="209.5"
   cx="494.29999"
   id="rightLowerLipBottom1" />
          <circle
   r="0.80000001"
   cy="202.8"
   cx="494.5"
   id="rightLowerLipTop0" />
          <circle
   r="0.80000001"
   cy="200.39999"
   cx="480.89999"
   id="rightMouthCorner" />
          <circle
   r="0.80000001"
   cy="199.89999"
   cx="494.5"
   id="rightUpperLipBottom1" />
          <circle
   r="0.80000001"
   cy="197"
   cx="487.79999"
   id="rightUpperLipTop0" />
          <circle
   r="0.80000001"
   cy="195.89999"
   cx="494.29999"
   id="rightUpperLipTop1" />
          <circle
   r="0.80000001"
   cy="200.39999"
   cx="498.39999"
   id="upperLipBottomMid" />
          <circle
   r="0.80000001"
   cy="196.8"
   cx="498.39999"
   id="upperLipTopMid" />
          <path
   d="m 484.5,199.9 c 0.4,0 0.8,0.4 0.8,0.8 0,0.4 -0.4,0.8 -0.8,0.8 -0.4,0 -0.8,-0.4 -0.8,-0.8 0,-0.4 0.4,-0.8 0.8,-0.8 z"
   id="rightMiddleLip" />
          <path
   d="m 512.3,199.9 c 0.4,0 0.8,0.4 0.8,0.8 0,0.4 -0.4,0.8 -0.8,0.8 -0.4,0 -0.8,-0.4 -0.8,-0.8 0,-0.4 0.4,-0.8 0.8,-0.8 z"
   id="leftMiddleLip" />
          <polygon
   id="mouth-line"
   points="509.5,206.7 502.4,209.5 498.4,210 494.3,209.5 487.3,206.7 480.9,200.4 487.8,197 494.3,195.9 498.4,196.8 502.6,195.9 509,197 515.9,200.4 "
   style="fill:none;stroke:#000000;stroke-miterlimit:10" />
          <polyline
   id="top-mouth-line"
   points="480.9,200.4 484.5,200.7 494.5,199.9 498.4,200.4    502.4,199.9 512.3,200.7 515.9,200.4  "
   style="fill:none;stroke:#000000;stroke-miterlimit:10" />
          <polyline
   id="bottom-mouth-line"
   points="480.9,200.4 484.5,200.7 494.5,202.8 498.4,203.6    502.4,202.8 512.3,200.7 515.9,200.4  "
   style="fill:none;stroke:#000000;stroke-miterlimit:10" />
        </g>
      </g>
      <g
   id="head-shape-s">
        <circle
   r="0.80000001"
   cy="141.60001"
   cx="539.09998"
   id="leftJaw0" /><circle
   r="0.80000001"
   cy="150.8"
   cx="541.59998"
   id="leftJaw1" /><circle
   r="0.80000001"
   cy="162.5"
   cx="542.40002"
   id="leftJaw2" /><circle
   r="0.80000001"
   cy="172.10001"
   cx="542.40002"
   id="leftJaw3" /><circle
   r="0.80000001"
   cy="193.7"
   cx="539"
   id="leftJaw4" /><circle
   r="0.80000001"
   cy="226.3"
   cx="523.20001"
   id="leftJaw6" /><circle
   r="0.80000001"
   cy="213.7"
   cx="534.79999"
   id="leftJaw5" /><circle
   r="0.80000001"
   cy="233"
   cx="513.20001"
   id="leftJaw7" /><circle
   r="0.80000001"
   cy="141.2"
   cx="457.5"
   id="rightJaw0" /><circle
   r="0.80000001"
   cy="150.5"
   cx="455"
   id="rightJaw1" /><circle
   r="0.80000001"
   cy="162.2"
   cx="454.20001"
   id="rightJaw2" /><circle
   r="0.80000001"
   cy="171.7"
   cx="454.20001"
   id="rightJaw3" /><circle
   r="0.80000001"
   cy="194.25313"
   cx="457.59088"
   id="rightJaw4" /><circle
   r="0.80000001"
   cy="213.39999"
   cx="461.79999"
   id="rightJaw5" /><circle
   r="0.80000001"
   cy="225.89999"
   cx="473.39999"
   id="rightJaw6" /><circle
   r="0.80000001"
   cy="232.60001"
   cx="483.39999"
   id="rightJaw7" /><circle
   r="0.80000001"
   cy="235.8"
   cx="498.39999"
   id="jawMid" /><circle
   r="0.80000001"
   cy="115.1"
   cx="498.60001"
   id="topMid" />
        <circle
   r="0.80000001"
   cy="117.6"
   cx="518.29999"
   id="leftTop0" />
        <circle
   r="0.80000001"
   cy="127.1"
   cx="530.90002"
   id="leftTop1" />
        
        <circle
   r="0.80000001"
   cy="117.6"
   cx="478.70001"
   id="rightTop0" />
        <circle
   r="0.80000001"
   cy="127.1"
   cx="466.10001"
   id="rightTop1" />
      <polyline
   points="498.4,115.1 478.6,117.6 466.1,127.1 457.5,141.2    455,150.5 454.2,162.2 454.2,171.7 455,193.4 461.8,213.4 473.4,225.9 483.4,232.6 498.4,235.8 513.2,233 523.2,226.3 534.8,213.7    541.6,193.7 542.4,172.1 542.4,162.5 541.6,150.8 539.1,141.6 530.9,127.1 518.3,117.6 498.4,115.1 "
   style="fill:none;stroke:#000000;stroke-miterlimit:10"
   id="head-line-s" /></g>
    </g>
  </g><g
     id="illustration"
     style="display:inline"
     transform="translate(0.62598091,-5.3208378)"><g
       id="left-shoe">
      <path
   id="path425"
   d="m 523.3,868 v 46.8 c 0,48.8 55.4,50.3 55.4,4.5 v -51.8 z"
   style="fill:#803300" />
      <rect
   id="rect427"
   height="4.4000001"
   width="30.6"
   style="fill:#ffffff"
   y="889.29999"
   x="535.70001" />
      <rect
   id="rect429"
   height="4.4000001"
   width="30.6"
   style="fill:#ffffff"
   y="897.70001"
   x="535.70001" />
      <rect
   id="rect431"
   height="4.4000001"
   width="30.6"
   style="fill:#ffffff"
   y="906.20001"
   x="535.70001" />
    </g><g
       id="right-shoe">
      <path
   id="path433"
   d="m 420,868 v 46.8 c 0,48.8 55.4,50.3 55.4,4.5 v -51.8 z"
   style="fill:#803300" />
      <rect
   id="rect437"
   height="4.4000001"
   width="30.6"
   style="fill:#ffffff"
   y="889.29999"
   x="432.39999" />
      <rect
   id="rect439"
   height="4.4000001"
   width="30.6"
   style="fill:#ffffff"
   y="897.70001"
   x="432.39999" />
      <rect
   id="rect441"
   height="4.4000001"
   width="30.6"
   style="fill:#ffffff"
   y="906.20001"
   x="432.39999" />
    </g><path
       sodipodi:nodetypes="ccccccccccccc"
       d="M 410.34186,495.57054 404.14497,722 v 155.8 h 89.08866 V 723.3 c 0,0 -2.57922,-142.46747 2.28977,-146.89383 5.75426,-4.42635 10.62325,-3.54108 14.16433,0 4.86899,5.75426 1.3279,146.89383 1.3279,146.89383 v 154.5 h 81.94013 V 723.3 l -7.96744,-246.32014 z"
       style="fill:#b1c9c3;stroke-width:0.945287"
       id="pants" /><path
       sodipodi:nodetypes="ccczcccc"
       d="m 412.01347,507.12206 c 0,-47.3 -12.53174,-117.97354 -12.03278,-169.84957 -5.00641,-14.50661 13.50066,-58.92968 23.57609,-69.92968 28.21176,-12.60548 57.01713,-12.94474 76.32195,-12.94474 19.30482,0 62.13726,2.50175 81.71347,15.09783 7.9219,9.4 15.57921,47.56361 21.11686,60.76361 -5.91139,51.31736 -21.0629,126.33657 -21.0629,176.23657 z"
       style="fill:#de8787;stroke-width:0.876993"
       id="shirt" /><path
       sodipodi:nodetypes="ccccc"
       d="m 344.31999,266.82229 8.69675,49.84365 c 28.8008,21.5465 39.02123,50.5255 54.64062,81.14875 l 19.09556,-131.45393 c -45.44189,-11.39111 -45.46625,-2.0532 -82.43293,0.46153 z"
       style="fill:#de8787"
       id="shirt-sleeve-right" /><path
       sodipodi:nodetypes="ccccc"
       d="m 567.60934,264.10881 16.07904,137.47642 c 18.14729,-32.57751 21.66592,-68.08834 63.74578,-86.19375 l 7.96744,-46.17675 c -37.40932,-4.72791 -35.73823,-13.55372 -87.79226,-5.10592 z"
       style="fill:#de8787"
       id="shirt-sleeve-left" /><path
       d="m 843.8,326.2 17,-6.8 c 0,0 6.1,5.5 13,11.2 6.9,5.7 -4.7,18.4 -15.3,10.6 -10.7,-7.8 -14.7,-15 -14.7,-15 z"
       style="fill:#f3af9d"
       id="hand-thumb-left" /><path
       d="m 155.6,326.2 -17,-6.8 c 0,0 -6.1,5.5 -13,11.2 -6.9,5.7 4.7,18.4 15.3,10.6 10.7,-7.8 14.7,-15 14.7,-15 z"
       style="fill:#f3af9d"
       id="hand-thumb-right" /><path
       sodipodi:nodetypes="csscc"
       d="M 352.54251,272.75181 C 304.84251,275.45181 167.9,282.6 130.8,287.9 c -37.1,5.3 -40.1,40.1 5.3,39.5 45.4,-0.6 158.83525,-8.33754 223.33525,-16.93754 z"
       style="fill:#f3af9d"
       id="forearm-right" /><path
       sodipodi:nodetypes="csscc"
       d="M 645.96051,307.67675 C 710.46051,316.27675 823,329.8 868.4,330.4 c 45.4,0.6 42.4,-34.2 5.3,-39.5 -37.1,-5.3 -175.58368,-12.38527 -223.28368,-15.08527 z"
       style="fill:#f3af9d"
       id="forearm-left" /><g
       transform="matrix(1,0,0,1.3083778,0,-40.338231)"
       id="head-group"><g
         id="hair"
         transform="translate(-124.15168,-41.040926)"><path
           id="path4094"
           d="m 675,319.9 c -27.8,-13.5 -68.3,-15.8 -101.3,-0.1 -5.1,-10.8 -14,-45.8 -13.1,-80.4 1.1,-40.5 15.5,-80.5 65.3,-80.4 47.8,0 61.8,39.1 62.5,79.7 0,33.1 -13.4,81.2 -13.4,81.2 z"
           style="fill:#60504b" /><path
           id="path4110"
           d="m 651.6,162.2 c 1.3,-3.6 2.1,-7.4 2.5,-11.2 2.6,3.1 3.8,7.4 3.2,11.4 -0.1,0.7 -0.3,1.5 -0.7,2.1 -0.7,0.9 -1.9,1.2 -3,1.4 -1.8,0.4 -3.6,0.8 -5.5,1 1.6,-1.4 2.8,-2.7 3.5,-4.7 z"
           style="fill:#60504b" /><path
           id="path4112"
           d="m 650.5,166.7 c 5.8,-0.4 10.8,-5.7 11,-11.5 2.3,1 3.4,3.9 2.7,6.3 -0.7,2.4 -2.9,4.2 -5.3,4.9 -2.4,0.7 -5,0.4 -7.4,-0.3"
           style="fill:#60504b" /></g><path
         sodipodi:nodetypes="cczcsc"
         d="m 472.00554,219.47973 h 52.68631 c 0,0 5.10751,25.29903 3.15989,36.52318 -1.94763,11.22415 -5.70618,16.13227 -27.86446,24.6612 -20.90631,-7.73805 -26.02789,-12.34846 -29.52421,-23.89659 -4.84584,-16.0055 1.54247,-37.28779 1.54247,-37.28779 z"
         style="fill:#f3af9d;stroke-width:1.02279"
         id="neck" /><path
         sodipodi:nodetypes="cccc"
         d="m 472.07462,220.43661 54.02017,4.13262 c -3.72744,7.86752 -51.8288,26.55382 -57.32633,22.96552 z"
         style="fill:#d38d5f;stroke-width:0.965373"
         id="neck-shadow" /><ellipse
         transform="matrix(0.99851762,-0.0544294,0.0929098,0.99567453,0,0)"
         cy="218.8018"
         cx="523.91046"
         style="fill:#ffccaa;stroke-width:0.596802"
         rx="5.532444"
         ry="9.425705"
         id="ear-left" /><ellipse
         transform="matrix(0.99557743,0.09394454,-0.15946651,0.98720334,0,0)"
         cy="144.95161"
         cx="482.17834"
         style="fill:#ffb380;stroke-width:0.618738"
         rx="4.9675765"
         ry="11.28339"
         id="ear-right" /><path
         sodipodi:nodetypes="cccccccccccccccccccccccc"
         id="face-skin"
         d="m 480.99775,135.44145 -12.42134,7.89126 c 0,0 -9.19615,9.32195 -11.30357,19.04832 0,0 -0.6878,7.24417 -1.08921,11.30387 0,1.26866 0.63797,5.25039 0.83868,8.5489 -0.50177,2.02985 -0.46877,5.93432 -0.66948,8.55621 0.30107,4.22886 3.61299,13.09544 4.61653,17.07057 1.00353,3.38309 2.60383,4.85142 4.71126,8.14993 3.61274,3.97512 3.2043,4.40748 9.02482,8.72092 2.40849,2.11442 5.95323,4.76729 10.5695,6.71256 7.02476,1.69154 7.10418,0.68502 14.93177,1.61537 7.82759,-0.7612 7.62667,0.32808 14.45072,-1.27889 5.31875,-2.36816 8.03739,-5.0411 13.35613,-8.67792 2.27075,-1.67454 4.11387,-4.74407 8.8305,-9.98785 1.70601,-2.79105 3.407,-6.78165 5.81548,-14.3936 1.10389,-3.80597 1.7144,-6.57579 1.91511,-10.60574 -0.3548,-2.15298 -1.00283,-4.17675 -1.28668,-7.52583 0.17991,-4.30545 0.16036,-4.28651 0.16036,-8.11403 -0.0502,-2.36816 -0.5379,-7.38937 -0.78879,-9.84211 -0.14191,-2.33239 -1.82633,-5.64591 -2.46497,-7.73909 -1.34825,-2.452 -7.22598,-11.56159 -7.22598,-11.56159 l -12.52069,-7.89126 -19.77477,-2.07665 z"
         style="fill:#ffccaa;stroke-width:0.950006" /><path
         style="fill:#deaa87;stroke-width:0.00874246"
         d="m 457.82254,177.41392 c -0.19559,-0.47429 -0.26409,-10.2093 -0.0844,-11.98956 0.15668,-1.552 2.03208,-10.40855 2.26505,-10.69665 0.19255,-0.23812 2.56996,-1.56412 2.64221,-1.47369 0.10315,0.1291 1.27993,4.27839 1.65374,5.831 0.60835,2.52678 1.00434,4.72668 1.26051,7.0026 l 0.1689,1.50053 -1.58194,2.98485 c -0.97695,1.84333 -1.7263,3.08962 -1.95942,3.2588 -0.2076,0.15069 -0.37746,0.35849 -0.37746,0.46179 0,0.15702 -3.37584,3.15147 -3.75451,3.33035 -0.0673,0.0318 -0.17198,-0.0627 -0.23272,-0.21002 z"
         id="right-temple-shadow" /><path
         d="m 441.8086,184.72177 c 21.58222,-20.24034 18.31449,-53.21409 61.78306,-43.08109 51.67526,-11.13977 10.14398,21.23796 51.97686,36.84392 14.13015,-3.38039 9.02703,-21.20641 -0.22708,-38.37692 -9.25411,-17.17051 -24.44071,-30.36948 -45.67785,-20.42614 -8.31482,-0.33029 -24.84573,-5.02649 -35.66744,2.21244 -22.46534,11.24989 -57.60531,52.7336 -32.18755,62.82779 z"
         class="hair"
         id="hair-top"
         style="fill:#605042;stroke-width:1.12878"
         sodipodi:nodetypes="ccczccc" /><g
         transform="matrix(1.070732,0,0,1.2279953,-34.889719,-13.442627)"
         id="face-group"><g
           transform="matrix(0.96808946,0,0,0.80497261,16.658826,32.456926)"
           id="nose-group">
          <path
   id="nose-bottom"
   d="m 490.35555,179.00955 c -0.44665,0.54266 0.0202,0.89151 1.21007,0.89151 0.72927,0 1.13162,-0.13572 2.33398,0.56198 1.74592,1.04656 2.39434,0.80307 3.70003,0.96904 0.93194,-0.11629 2.50653,-0.34156 2.86569,-0.76793 0.31155,-0.46515 1.46,-0.69165 2.19075,-0.84669 0.74002,-0.11628 1.51151,-0.18773 1.58978,-0.34279 0.1979,-0.62017 -1.78109,-0.3876 -3.66013,0.42639 -2.40869,1.0078 -3.41588,0.96903 -6.18745,-0.19381 -2.26487,-0.96903 -3.70202,-1.20161 -4.04272,-0.6977 z"
   style="fill:#502d16;stroke-width:0.0385719"
   sodipodi:nodetypes="cscccccccc" /><rect
   ry="1.3367555"
   transform="matrix(0.99983401,-0.01821951,-0.11030048,0.99389829,0,0)"
   y="166.76747"
   x="511.32928"
   height="14.533078"
   width="2.2265904"
   id="nose-shadow"
   style="fill:#d38d5f;stroke-width:0.667426" />
          <circle
   r="0.80000001"
   cy="161.2"
   cx="497.60001"
   id="nose1_1_" />
          <circle
   r="0.80000001"
   cy="155.39999"
   cx="497.60001"
   id="nose0_1_" />
          <circle
   r="0.80000001"
   cy="173.8"
   cx="497.60001"
   id="nose3_1_" />
          <circle
   r="0.80000001"
   cy="178.3"
   cx="486.89999"
   id="rightNose0_1_" />
          <circle
   r="0.80000001"
   cy="178.3"
   cx="492.10001"
   id="rightNose1_1_" />
          <circle
   r="0.80000001"
   cy="166.7"
   cx="497.60001"
   id="nose2_1_" />
          <circle
   r="0.80000001"
   cy="179.10001"
   cx="497.60001"
   id="nose4_1_" />
          <circle
   r="0.80000001"
   cy="178.3"
   cx="508"
   id="leftNose0_1_" />
          <circle
   r="0.80000001"
   cy="178.3"
   cx="503.20001"
   id="leftNose1_1_" />
        </g><g
           id="left-brow-group"
           transform="matrix(0.88030974,0.02836779,0,0.54487024,65.219171,58.228527)">
          <path
   d="m 529.05355,146.35803 c 1.08163,0.19579 6.3275,5.05146 6.3275,5.87379 0,0.70485 -0.0541,0.66569 -3.89384,-1.17476 -3.7316,-1.84045 -5.7326,-2.19288 -9.89684,-1.76213 -3.7316,0.39158 -17.79269,1.44886 -17.95494,1.33139 -0.0541,-0.0392 0.48673,-0.70486 1.18978,-1.48803 l 1.35203,-1.44887 4.70506,-0.15663 c 4.48874,-0.15664 12.38458,-0.74401 15.68352,-1.17476 0.81122,-0.11748 1.94692,-0.11748 2.48773,0 z"
   id="path5660"
   style="fill:#60504b;fill-opacity:0.901961" />
          <circle
   r="0.80000001"
   cy="148.7"
   cx="530.09998"
   id="leftBrow1_1_" />
          <circle
   r="0.80000001"
   cy="150.8"
   cx="506.5"
   id="leftBrow4_1_" />
          <circle
   r="0.80000001"
   cy="147.60001"
   cx="516.5"
   id="leftBrow3_1_" />
          <circle
   r="0.80000001"
   cy="151.60001"
   cx="534.09998"
   id="leftBrow0_1_" />
          <circle
   r="0.80000001"
   cy="147.2"
   cx="523.79999"
   id="leftBrow2_1_" />
        </g><g
           id="right-brow-group"
           transform="matrix(0.8711028,0,0,0.57193974,62.692425,67.988079)">
          <path
   id="right-brow"
   d="m 466.11302,148.53098 c -1.08163,0.2521 -6.3275,5.38089 -6.3275,6.20322 0,0.70485 0.0541,0.66287 3.89384,-1.37749 3.7316,-2.03473 5.7326,-2.49134 9.89684,-2.27739 3.7316,0.1973 17.79269,0.52251 17.95494,0.39659 0.0541,-0.042 -0.48673,-0.67951 -1.18978,-1.42608 l -1.35203,-1.37848 -4.70506,0.0883 c -4.48874,0.0771 -12.38458,-0.0992 -15.68352,-0.35822 -0.81122,-0.0753 -1.94692,-0.0161 -2.48773,0.12952 z"
   style="fill:#60504b;fill-opacity:0.901961" />
          <circle
   r="0.80000001"
   cy="148.3"
   cx="466.39999"
   id="rightBrow1_1_" />
          <circle
   r="0.80000001"
   cy="151.3"
   cx="489.70001"
   id="rightBrow4_1_" />
          <circle
   r="0.80000001"
   cy="147.3"
   cx="479.89999"
   id="rightBrow3_1_" />
          <circle
   r="0.80000001"
   cy="152"
   cx="462.39999"
   id="rightBrow0_1_" />
          <circle
   r="0.80000001"
   cy="147.3"
   cx="472.60001"
   id="rightBrow2_1_" />
        </g><g
           id="glasses"><path
             id="frames"
             d="m 462.42707,155.8894 c 1.96363,-1.23973 18.76971,-1.80425 26.32355,-1.02408 3.86684,0.13809 5.54172,3.12071 9.59967,2.82382 4.69866,0.69733 6.80069,-2.64431 11.10594,-2.85834 7.47515,-0.73184 15.16388,-0.45567 22.58283,0.36593 0,0 1.62495,0.21648 3.07112,1.24384 7.33671,-0.6308 7.36818,0.69667 1.80972,2.22351 -0.033,1.58063 0.54632,2.26387 0.18878,3.88563 -0.26979,2.83763 -2.12452,6.35877 -7.16041,7.13204 -5.6429,0.64209 -11.48813,0.40045 -17.15352,-0.0414 -3.95677,-0.23475 -7.655,-1.7951 -9.5547,-3.9285 -1.56248,-1.6501 -0.94423,-3.6178 -1.02292,-5.44051 -2.06832,-0.68352 -4.3502,-0.62138 -6.51968,-0.14499 -0.0449,2.27839 0.51707,4.90199 -2.24817,6.7247 -3.92305,3.05856 -10.72375,3.11379 -16.50154,3.18284 -4.17035,-0.076 -9.09384,0.40734 -12.42112,-1.52583 -2.77649,-1.53964 -4.50138,-6.19427 -3.98464,-8.67374 0,0 0.2191,-0.93935 0.47748,-2.0069 -2.99712,-1.48079 -6.34975,-4.91205 0.62629,-1.3306 z m 1.34641,4.23005 c -0.26977,2.76858 -0.0675,6.51066 4.5975,7.91222 4.69868,0.34521 9.46479,0.13118 14.18593,0.11737 3.59708,0.0621 7.19414,-1.04254 9.30742,-2.83073 1.80977,-2.31981 0.62948,-4.91579 0.14613,-7.33226 -5.42932,-2.20935 -12.29747,-1.298 -18.42373,-1.38775 -3.67576,0.0829 -9.93689,0.4971 -9.81325,3.52115 m 42.05195,-2.07817 c -0.13488,2.80311 -2.21444,6.52447 2.13577,8.52669 3.87808,2.07817 9.22872,1.53964 13.94987,1.64321 2.65284,-0.0483 5.36187,0.13118 7.98099,-0.23475 3.78816,-1.24966 4.01297,-4.1011 4.53006,-6.4071 -0.41592,-1.11848 -0.10117,-2.43719 -1.28146,-3.38997 -3.45093,-1.76057 -8.23953,-1.53963 -12.4436,-1.6501 -5.00217,0.0759 -10.57762,-0.45568 -14.87163,1.51202 z"
             fill="#333333"
             sodipodi:nodetypes="ccccccccccccccccccccccccccccccccccc" /><path
             id="lens-right"
             d="m 463.37793,160.05624 c -0.12643,-3.13307 6.27578,-3.56226 10.03434,-3.64809 6.26427,0.093 13.28717,-0.85122 18.8388,1.43778 0.49425,2.50359 1.70113,5.19316 -0.14941,7.59661 -2.16089,1.85267 -5.839,2.99715 -9.5171,2.93279 -4.82752,0.0143 -9.70102,0.23604 -14.50554,-0.12161 -4.77004,-1.45208 -4.97695,-5.32908 -4.70109,-8.19748 z"
             fill="#ffccaa" /><path
             id="lens-left"
             d="m 505.48761,157.79715 c 4.37014,-2.02102 10.04445,-1.475 15.13531,-1.553 4.27862,0.11346 9.15212,-0.11346 12.66424,1.69481 1.20122,0.97861 0.88091,2.33304 1.30418,3.48184 -0.52625,2.36848 -0.75506,5.29719 -4.61037,6.58071 -2.66555,0.37584 -5.42264,0.19148 -8.12251,0.24111 -4.80487,-0.10637 -10.25038,0.44676 -14.19723,-1.68773 -4.42733,-2.05647 -2.3109,-5.87869 -2.17362,-8.75774 z"
             fill="#ffccaa" /></g><g
           transform="matrix(0.84013254,0,0,0.47282261,80.160156,84.249233)"
           style="fill:#000000"
           id="left-eye-group">
          <ellipse
   transform="matrix(0.9991413,-0.04143258,0.16388322,0.98647975,0,0)"
   id="left-eye-shadow"
   style="fill:#e9c6af;stroke-width:1.35936"
   ry="7.975904"
   rx="17.410742"
   cy="184.35016"
   cx="493.51077" /><path
   d="m 513.54926,158.63613 c -1.81492,1.59795 -3.26687,3.4738 -3.26687,4.23803 0,1.25058 0.29039,1.18109 2.5409,-0.76423 3.12167,-2.57061 4.86399,-2.70957 6.46112,-0.48633 1.59713,2.36219 4.9366,2.918 7.69528,1.38952 2.03271,-1.18109 2.10531,-1.32005 0.72597,-1.80638 -1.81492,-0.62529 -1.88753,-1.73691 -0.0726,-2.29272 0.87116,-0.27789 3.12167,0.41687 5.80775,1.73691 5.44477,2.64009 6.02555,1.38953 1.01636,-2.36219 -3.33946,-2.50114 -2.7647,-1.90201 -9.73003,-2.18253 l -7.91103,-0.31861 z"
   style="stroke-width:0.0710192"
   id="left-eye" />
          <circle
   r="0.80000001"
   cy="160.2"
   cx="528.20001"
   id="leftEye0_1_" />
          <circle
   r="0.80000001"
   cy="156.5"
   cx="523"
   id="leftEye1_1_" />
          <circle
   r="0.80000001"
   cy="162.5"
   cx="523"
   id="leftEye5_1_" />
          <circle
   r="0.80000001"
   cy="156.5"
   cx="516.70001"
   id="leftEye2_1_" />
          <circle
   r="0.80000001"
   cy="160.7"
   cx="511.5"
   id="leftEye3_1_" />
          <circle
   r="0.80000001"
   cy="161.7"
   cx="516.70001"
   id="leftEye4_1_" />
        </g><g
           transform="matrix(0.80596072,0,0,0.52322753,96.630459,76.565287)"
           style="display:inline;fill:#000000"
           id="right-eye-group">
          <ellipse
   transform="matrix(0.99953495,-0.03049387,0.11708446,0.99312196,0,0)"
   ry="6.5824943"
   rx="17.711208"
   cy="175.04044"
   cx="452.97037"
   id="right-eye-shadow"
   style="fill:#e9c6af;stroke-width:1.02998" /><path
   d="m 466.94433,155.5249 c -5.84676,2.00851 -8.27743,4.83297 -4.79566,5.7117 2.2336,0.56489 2.36498,0.50213 2.2336,-1.31809 -0.13139,-1.44361 0.19708,-1.75744 2.62776,-2.44787 l 2.75914,-0.75319 0.45986,1.94574 c 0.65694,2.95 1.44527,3.57766 4.53288,3.57766 3.21901,0 5.25552,-1.50638 3.02192,-2.1968 -1.97081,-0.5649 -1.70804,-1.38086 0.59125,-1.88298 1.57665,-0.31383 2.75915,0.0628 5.97815,1.88298 2.1679,1.31808 4.13872,2.13404 4.3358,1.94574 0.52555,-0.43936 -4.3358,-5.39787 -5.32121,-5.39787 -0.32847,0 -1.1168,-0.43936 -1.70805,-0.94149 -0.59124,-0.50213 -3.02192,-1.06702 -5.64967,-1.25532 -3.74456,-0.31383 -5.32121,-0.12553 -9.06577,1.12979 z"
   style="stroke-width:0.0642131"
   id="right-eye-shape" />
          <circle
   r="0.80000001"
   cy="160.2"
   cx="468.60001"
   id="rightEye0_1_" />
          <circle
   r="0.80000001"
   cy="156.5"
   cx="473.79999"
   id="rightEye1_1_" />
          <circle
   r="0.80000001"
   cy="162.5"
   cx="473.79999"
   id="rightEye5_1_" />
          <circle
   r="0.80000001"
   cy="156.5"
   cx="480.10001"
   id="rightEye2_1_" />
          <circle
   r="0.80000001"
   cy="160.7"
   cx="485.29999"
   id="rightEye3_1_" />
          <circle
   r="0.80000001"
   cy="161.7"
   cx="480.10001"
   id="rightEye4_1_" />
        </g><g
           style="fill:#502d16"
           inkscape:transform-center-y="-2.5241946"
           inkscape:transform-center-x="0.53884212"
           transform="matrix(0.98737833,0,0,0.67781727,5.285454,42.862375)"
           id="mouth-group"><circle
             style="fill:#502d16"
             r="0.5"
             cy="208.72913"
             cx="499.5578"
             id="upperLipBottomMid_1_" /><circle
             style="fill:#502d16"
             r="0.5"
             cy="209.73775"
             cx="493.62015"
             id="rightUpperLipBottom1_1_" /><circle
             style="fill:#502d16"
             r="0.5"
             cy="209.66888"
             cx="505.06577"
             id="leftUpperLipBottom1_1_" /><circle
             style="fill:#502d16"
             r="0.5"
             cy="211.96887"
             cx="499.81564"
             id="lowerLipTopMid_2_" /><circle
             style="fill:#502d16"
             r="0.5"
             cy="211.67549"
             cx="496.62811"
             id="rightLowerLipTop0_2_" /><circle
             style="fill:#502d16"
             r="0.5"
             cy="211.60661"
             cx="503.08911"
             id="leftLowerLipTop0_2_" /><path
             style="fill:#502d16"
             d="m 487.5,209.6 c 0.3,0 0.5,0.3 0.5,0.5 0,0.2 -0.3,0.5 -0.5,0.5 -0.3,0 -0.5,-0.3 -0.5,-0.5 0,-0.2 0.3,-0.5 0.5,-0.5 z"
             id="rightMiddleLip_2_" /><path
             style="fill:#502d16"
             d="m 511.1,209.6 c 0.3,0 0.5,0.3 0.5,0.5 0,0.2 -0.3,0.5 -0.5,0.5 -0.2,0 -0.5,-0.3 -0.5,-0.5 0,-0.2 0.2,-0.5 0.5,-0.5 z"
             id="leftMiddleLip_2_" /><path
             sodipodi:nodetypes="ccccccccc"
             id="bouche"
             d="m 499.44708,205.9597 c -4.96555,-0.77116 -16.36794,2.03664 -17.93799,3.3576 -1.0467,1.01611 -2.71414,2.26266 -2.19807,4.27209 0.10467,1.62579 4.6816,7.5444 6.98434,8.56052 5.00383,2.82797 10.55606,-1.27037 14.09477,-1.36989 4.22597,-0.005 9.62632,2.69899 13.03685,1.8861 3.90114,-2.72767 6.27548,-5.92897 6.46915,-8.7763 -0.10467,-2.13384 -2.16138,-4.67855 -2.16138,-4.67855 -2.72142,-1.62578 -13.95221,-4.08812 -18.28767,-3.25157 z"
             style="fill:#ffccaa;fill-opacity:0.901961;stroke:none" /><ellipse
             style="fill:#28170b;fill-opacity:0.901961;stroke-width:0.762421"
             id="inside-mouth"
             cx="499.40198"
             cy="211.01479"
             rx="11.213342"
             ry="1.5841054" /><ellipse
             style="fill:#784421;fill-opacity:0.901961;stroke-width:0.762421"
             id="tounge"
             cx="500.01959"
             cy="210.64278"
             rx="6.2526007"
             ry="2.2384098" /><path
             id="teeth-upper"
             d="m 503.12638,208.78107 c 2.90143,0 6.06296,0.75655 6.06296,0.75655 0,0 -5.77433,0.85484 -9.8041,0.85484 -4.11035,0 -9.85655,-0.88423 -9.85655,-0.88423 0,0 3.77634,-0.72716 6.67776,-0.72716 h 3.45997 z"
             sodipodi:nodetypes="ccscccc"
             fill="#eeeeee" /><path
             fill="#eeeeee"
             sodipodi:nodetypes="ccscccc"
             d="m 503.12638,211.62744 c 2.90143,0 6.06296,0.75655 6.06296,0.75655 0,0 -5.77433,0.85484 -9.8041,0.85484 -4.11035,0 -9.85655,-0.88423 -9.85655,-0.88423 0,0 3.77634,-0.72716 6.67776,-0.72716 h 3.45997 z"
             id="teeth-lower" /><path
             style="fill:#deaa87"
             d="m 496.31585,209.40031 c -2.75012,-0.13775 -7.26467,0.87548 -7.26467,0.87548 -1.88511,-0.1165 -6.28221,1.53044 -7.3,0.19086 3.50041,-1.68494 9.13588,-2.99151 12.35748,-3.38703 3.14843,-0.1805 4.34322,0.22764 5.73843,0.15876 1.08517,0.10331 2.81748,-0.27422 4.97448,-0.0436 3.86159,0.19743 8.43783,1.82343 11.99177,3.34081 -1.21539,0.58442 -4.55211,-0.50322 -6.88654,0.0109 -2.20022,0.4052 -3.72771,-1.00842 -6.39189,-1.00842 0,0 -1.97092,0.20126 -3.78141,0.2066 -1.81049,0.005 -3.43765,-0.34436 -3.43765,-0.34436 z"
             id="lip-upper"
             sodipodi:nodetypes="ccccccccczc" /><path
             sodipodi:nodetypes="ccccacccc"
             id="lip-lower"
             d="m 495.45275,212.1044 c -2.75663,-0.17333 -4.39564,-1.52395 -6.38589,-1.58455 -2.14853,0.20662 -6.08254,-1.25495 -7.09388,0.0846 3.47826,1.68494 7.61491,4.0935 10.81613,4.48902 3.12851,0.1805 4.60506,-0.0832 6.90803,-0.0899 2.02051,-0.006 3.91798,0.27421 6.06133,0.0436 3.4934,-0.67954 7.52341,-2.99428 11.05487,-4.51166 -1.2077,-0.58442 -5.71943,0.2966 -7.86775,0.40235 -1.92522,0.1458 -2.40196,0.99315 -5.24249,1.30423"
             style="opacity:0.9;fill:#ffb380;stroke-width:0.996835" /></g></g></g></g></svg>
