<?xml version="1.0" encoding="UTF-8" standalone="no"?>
<svg
   xmlns:dc="http://purl.org/dc/elements/1.1/"
   xmlns:cc="http://creativecommons.org/ns#"
   xmlns:rdf="http://www.w3.org/1999/02/22-rdf-syntax-ns#"
   xmlns:svg="http://www.w3.org/2000/svg"
   xmlns="http://www.w3.org/2000/svg"
   xmlns:sodipodi="http://sodipodi.sourceforge.net/DTD/sodipodi-0.dtd"
   xmlns:inkscape="http://www.inkscape.org/namespaces/inkscape"
   inkscape:version="1.0 (4035a4f, 2020-05-01)"
   sodipodi:docname="pablo.svg"
   version="1.1"
   id="Layer_1"
   x="0px"
   y="0px"
   width="1000px"
   height="1000px"
   viewBox="0 0 1000 1000"
   style="enable-background:new 0 0 1000 1000;"
   xml:space="preserve"><metadata
   id="metadata2679"><rdf:RDF><cc:Work
       rdf:about=""><dc:format>image/svg+xml</dc:format><dc:type
         rdf:resource="http://purl.org/dc/dcmitype/StillImage" /><dc:title></dc:title></cc:Work></rdf:RDF></metadata><defs
   id="defs2677" /><sodipodi:namedview
   inkscape:current-layer="head-group"
   inkscape:window-maximized="1"
   inkscape:window-y="0"
   inkscape:window-x="0"
   inkscape:cy="198.67455"
   inkscape:cx="504.32411"
   inkscape:zoom="4.5183919"
   showgrid="false"
   id="namedview2675"
   inkscape:window-height="878"
   inkscape:window-width="1440"
   inkscape:pageshadow="2"
   inkscape:pageopacity="0"
   guidetolerance="10"
   gridtolerance="10"
   objecttolerance="10"
   borderopacity="1"
   bordercolor="#666666"
   pagecolor="#ffffff"
   inkscape:document-rotation="0" /><style
   id="style4358">
    #skeleton {
     opacity: 0.5;
     color: white;
    }
    .hair {
      fill: #552200
    }
  </style><g
   id="skeleton"><circle
   id="rightShoulder"
   cx="392.79999"
   cy="294.29999"
   r="8.1999998" /><circle
   id="rightElbow"
   cx="289.29999"
   cy="294.39999"
   r="8.1999998" /><circle
   r="8.1999998"
   id="rightWrist"
   transform="matrix(0.9951,-0.09853767,0.09853767,0.9951,-29.0274,13.8698)"
   cx="125.9"
   cy="300.79999" /><circle
   id="rightHip"
   cx="443.10001"
   cy="510.10001"
   r="8.1999998" /><circle
   id="rightKnee"
   cx="449.5"
   cy="670.29999"
   r="8.1999998" /><circle
   id="rightAnkle"
   cx="449.5"
   cy="878.29999"
   r="8.1999998" /><circle
   id="leftShoulder"
   cx="605.70001"
   cy="294.29999"
   r="8.1999998" /><circle
   id="leftElbow"
   cx="710.09998"
   cy="294"
   r="8.1999998" /><circle
   id="leftWrist"
   cx="873.5"
   cy="300.29999"
   r="8.1999998" /><circle
   id="leftHip"
   cx="559.5"
   cy="509.29999"
   r="8.1999998" /><circle
   id="leftKnee"
   cx="559.5"
   cy="670.29999"
   r="8.1999998" /><circle
   id="leftAnkle"
   cx="559.5"
   cy="878.29999"
   r="8.1999998" /><polygon
   style="fill:none;stroke:#000000;stroke-miterlimit:10"
   points="443,510.4 559.4,509.6 605.6,294.6 392.7,294.6 "
   id="torso-line-s" /><polyline
   style="fill:none;stroke:#000000;stroke-miterlimit:10"
   points="391.7,294.6 289,294.6 125.7,300.9  "
   id="right-arm-line-s" /><polyline
   style="fill:none;stroke:#000000;stroke-miterlimit:10"
   points="607.1,294.2 710.3,294.2 873.6,300.6  "
   id="left-arm-line-s" /><polyline
   style="fill:none;stroke:#000000;stroke-miterlimit:10"
   points="443,510.4 449.4,670.6 449.4,878.6  "
   id="right-leg-line-s" /><polyline
   style="fill:none;stroke:#000000;stroke-miterlimit:10"
   points="559.4,509.6 559.4,670.6 559.4,878.6  "
   id="left-leg-line-s" /><g
   id="head-s"
   transform="matrix(1.0872393,0,0,1.1006144,-42.630034,6.4750399)">
      <g
   id="face-s">
        <g
   id="jaw-group-s">
          <circle
   id="jawMid"
   cx="498.39999"
   cy="235.8"
   r="0.80000001" />
          <circle
   id="leftJaw0"
   cx="539.09998"
   cy="141.60001"
   r="0.80000001" />
          <circle
   id="leftJaw1"
   cx="541.59998"
   cy="150.8"
   r="0.80000001" />
          <circle
   id="leftJaw2"
   cx="542.40002"
   cy="162.5"
   r="0.80000001" />
          <circle
   id="leftJaw3"
   cx="542.40002"
   cy="172.10001"
   r="0.80000001" />
          <circle
   id="leftJaw4"
   cx="541.59998"
   cy="193.7"
   r="0.80000001" />
          <circle
   id="leftJaw5"
   cx="534.79999"
   cy="213.7"
   r="0.80000001" />
          <circle
   id="leftJaw6"
   cx="523.20001"
   cy="226.3"
   r="0.80000001" />
          <circle
   id="leftJaw7"
   cx="513.20001"
   cy="233"
   r="0.80000001" />
          <circle
   id="rightJaw0"
   cx="457.5"
   cy="141.2"
   r="0.80000001" />
          <circle
   id="rightJaw1"
   cx="455"
   cy="150.5"
   r="0.80000001" />
          <circle
   id="rightJaw2"
   cx="454.20001"
   cy="162.2"
   r="0.80000001" />
          <circle
   id="rightJaw3"
   cx="454.20001"
   cy="171.7"
   r="0.80000001" />
          <circle
   id="rightJaw4"
   cx="455"
   cy="193.39999"
   r="0.80000001" />
          <circle
   id="rightJaw5"
   cx="461.79999"
   cy="213.39999"
   r="0.80000001" />
          <circle
   id="rightJaw6"
   cx="473.39999"
   cy="225.89999"
   r="0.80000001" />
          <circle
   id="rightJaw7"
   cx="483.39999"
   cy="232.60001"
   r="0.80000001" />
        </g>
        <g
   id="left-brow-group-s"
   transform="translate(2.2379803,17.120549)">
          <circle
   id="leftBrow0"
   cx="534.09998"
   cy="151.60001"
   r="0.80000001" />
          <circle
   id="leftBrow1"
   cx="530.09998"
   cy="148.7"
   r="0.80000001" />
          <circle
   id="leftBrow2"
   cx="523.79999"
   cy="147.2"
   r="0.80000001" />
          <circle
   id="leftBrow3"
   cx="516.5"
   cy="147.60001"
   r="0.80000001" />
          <circle
   id="leftBrow4"
   cx="506.5"
   cy="150.8"
   r="0.80000001" />
          <polyline
   id="left-brow-s"
   style="fill:none;stroke:#000000;stroke-miterlimit:10"
   points="533.9,151.6 529.9,148.7 523.6,147.2 516.3,147.6    506.3,150.8  " />
        </g>
        <g
   id="right-brow-group-s"
   transform="translate(-2.7974753,16.784852)">
          <circle
   id="rightBrow0"
   cx="462.39999"
   cy="152"
   r="0.80000001" />
          <circle
   id="rightBrow1"
   cx="466.39999"
   cy="148.3"
   r="0.80000001" />
          <circle
   id="rightBrow2"
   cx="472.60001"
   cy="147.3"
   r="0.80000001" />
          <circle
   id="rightBrow4"
   cx="489.70001"
   cy="151.3"
   r="0.80000001" />
          <circle
   id="rightBrow3"
   cx="479.89999"
   cy="147.3"
   r="0.80000001" />
          <polyline
   id="right-brow-s"
   style="fill:none;stroke:#000000;stroke-miterlimit:10"
   points="462.4,152 466.4,148.3 472.6,147.3 479.9,147.3    489.7,151.3  " />
        </g>
        <g
   id="left-eye-group-s"
   transform="translate(-1.0646156,14.136767)">
          <circle
   id="leftEye0"
   cx="528.20001"
   cy="160.2"
   r="0.80000001" />
          <circle
   id="leftEye1"
   cx="523"
   cy="156.5"
   r="0.80000001" />
          <circle
   id="leftEye2"
   cx="516.70001"
   cy="156.5"
   r="0.80000001" />
          <circle
   id="leftEye3"
   cx="511.5"
   cy="160.7"
   r="0.80000001" />
          <circle
   id="leftEye4"
   cx="516.70001"
   cy="161.7"
   r="0.80000001" />
          <circle
   id="leftEye5"
   cx="523"
   cy="162.5"
   r="0.80000001" />
          <polygon
   style="fill:none;stroke:#000000;stroke-miterlimit:10"
   points="522.7,156.5 516.4,156.5 511.3,160.7 516.4,161.7 522.7,162.5 528,160.2 "
   id="left-eye-line-s" />
        </g>
        <g
   id="right-eye-group-s"
   transform="translate(-0.22379803,14.211175)">
          <circle
   id="rightEye0"
   cx="468.60001"
   cy="160.2"
   r="0.80000001" />
          <circle
   id="rightEye1"
   cx="473.79999"
   cy="156.5"
   r="0.80000001" />
          <circle
   id="rightEye2"
   cx="480.10001"
   cy="156.5"
   r="0.80000001" />
          <circle
   id="rightEye3"
   cx="485.29999"
   cy="160.7"
   r="0.80000001" />
          <circle
   id="rightEye4"
   cx="480.10001"
   cy="161.7"
   r="0.80000001" />
          <circle
   id="rightEye5"
   cx="473.79999"
   cy="162.5"
   r="0.80000001" />
          <polygon
   style="fill:none;stroke:#000000;stroke-miterlimit:10"
   points="473.8,156.5 480.1,156.5 485.3,160.7 480.1,161.7 473.8,162.5 468.6,160.2 "
   id="right-eye-line-s" />
        </g>
        <g
   id="nose-group-s"
   transform="matrix(1,0,0,1.0012987,0.33569704,18.598254)">
          <circle
   id="nose0"
   cx="497.60001"
   cy="155.39999"
   r="0.80000001" />
          <circle
   id="nose1"
   cx="497.60001"
   cy="161.2"
   r="0.80000001" />
          <circle
   id="nose2"
   cx="497.60001"
   cy="166.7"
   r="0.80000001" />
          <circle
   id="nose3"
   cx="497.60001"
   cy="173.8"
   r="0.80000001" />
          <circle
   id="nose4"
   cx="497.60001"
   cy="179.10001"
   r="0.80000001" />
          <circle
   id="leftNose0"
   cx="508"
   cy="178.3"
   r="0.80000001" />
          <circle
   id="leftNose1"
   cx="503.20001"
   cy="178.3"
   r="0.80000001" />
          <circle
   id="rightNose0"
   cx="486.89999"
   cy="178.3"
   r="0.80000001" />
          <circle
   id="rightNose1"
   cx="492.10001"
   cy="178.3"
   r="0.80000001" />
          <polyline
   style="fill:none;stroke:#000000;stroke-miterlimit:10"
   points="486.9,178.3 492.1,178.3 497.6,179.1 497.6,173.8    497.6,166.7 497.6,161.2 497.6,155.4  "
   id="nose-ridge-and-right" />
          <polyline
   style="fill:none;stroke:#000000;stroke-miterlimit:10"
   points="508,178.3 503,178.3 497.6,179.1  "
   id="nose-right" />
        </g>
        <g
   id="mouth-group-s"
   transform="matrix(1,0,0,0.70041751,0.40562086,69.222542)">
          <circle
   id="leftLowerLipBottom0"
   cx="509.5"
   cy="206.7"
   r="0.80000001" />
          <circle
   id="leftLowerLipBottom1"
   cx="502.60001"
   cy="209.5"
   r="0.80000001" />
          <circle
   id="leftLowerLipTop0"
   cx="502.39999"
   cy="202.8"
   r="0.80000001" />
          <circle
   id="leftMouthCorner"
   cx="515.90002"
   cy="200.39999"
   r="0.80000001" />
          <circle
   id="leftUpperLipBottom1"
   cx="502.39999"
   cy="199.89999"
   r="0.80000001" />
          <circle
   id="leftUpperLipTop0"
   cx="509"
   cy="197"
   r="0.80000001" />
          <circle
   id="leftUpperLipTop1"
   cx="502.60001"
   cy="195.89999"
   r="0.80000001" />
          <circle
   id="lowerLipBottomMid"
   cx="498.39999"
   cy="210"
   r="0.80000001" />
          <circle
   id="lowerLipTopMid"
   cx="498.39999"
   cy="203.5"
   r="0.80000001" />
          <circle
   id="rightLowerLipBottom0"
   cx="487.29999"
   cy="206.7"
   r="0.80000001" />
          <circle
   id="rightLowerLipBottom1"
   cx="494.29999"
   cy="209.5"
   r="0.80000001" />
          <circle
   id="rightLowerLipTop0"
   cx="494.5"
   cy="202.8"
   r="0.80000001" />
          <circle
   id="rightMouthCorner"
   cx="480.89999"
   cy="200.39999"
   r="0.80000001" />
          <circle
   id="rightUpperLipBottom1"
   cx="494.5"
   cy="199.89999"
   r="0.80000001" />
          <circle
   id="rightUpperLipTop0"
   cx="487.79999"
   cy="197"
   r="0.80000001" />
          <circle
   id="rightUpperLipTop1"
   cx="494.29999"
   cy="195.89999"
   r="0.80000001" />
          <circle
   id="upperLipBottomMid"
   cx="498.39999"
   cy="200.39999"
   r="0.80000001" />
          <circle
   id="upperLipTopMid"
   cx="498.39999"
   cy="196.8"
   r="0.80000001" />
          <path
   id="rightMiddleLip"
   d="m 484.5,199.9 c 0.4,0 0.8,0.4 0.8,0.8 0,0.4 -0.4,0.8 -0.8,0.8 -0.4,0 -0.8,-0.4 -0.8,-0.8 0,-0.4 0.4,-0.8 0.8,-0.8 z" />
          <path
   id="leftMiddleLip"
   d="m 512.3,199.9 c 0.4,0 0.8,0.4 0.8,0.8 0,0.4 -0.4,0.8 -0.8,0.8 -0.4,0 -0.8,-0.4 -0.8,-0.8 0,-0.4 0.4,-0.8 0.8,-0.8 z" />
          <polygon
   style="fill:none;stroke:#000000;stroke-miterlimit:10"
   points="502.6,195.9 509,197 515.9,200.4 509.5,206.7 502.4,209.5 498.4,210 494.3,209.5 487.3,206.7 480.9,200.4 487.8,197 494.3,195.9 498.4,196.8 "
   id="mouth-line" />
          <polyline
   style="fill:none;stroke:#000000;stroke-miterlimit:10"
   points="480.9,200.4 484.5,200.7 494.5,199.9 498.4,200.4    502.4,199.9 512.3,200.7 515.9,200.4  "
   id="top-mouth-line" />
          <polyline
   style="fill:none;stroke:#000000;stroke-miterlimit:10"
   points="480.9,200.4 484.5,200.7 494.5,202.8 498.4,203.6    502.4,202.8 512.3,200.7 515.9,200.4  "
   id="bottom-mouth-line" />
        </g>
      </g>
      <g
   id="head-shape-s">
        <circle
   id="topMid"
   cx="498.60001"
   cy="115.1"
   r="0.80000001" />
        <circle
   id="leftTop0"
   cx="518.29999"
   cy="117.6"
   r="0.80000001" />
        <circle
   id="leftTop1"
   cx="530.90002"
   cy="127.1"
   r="0.80000001" />
        <polyline
   id="head-line-s"
   style="fill:none;stroke:#000000;stroke-miterlimit:10"
   points="498.4,115.1 478.6,117.6 466.1,127.1 457.5,141.2    455,150.5 454.2,162.2 454.2,171.7 455,193.4 461.8,213.4 473.4,225.9 483.4,232.6 498.4,235.8 513.2,233 523.2,226.3 534.8,213.7    541.6,193.7 542.4,172.1 542.4,162.5 541.6,150.8 539.1,141.6 530.9,127.1 518.3,117.6 498.4,115.1 " />
        <circle
   id="rightTop0"
   cx="478.70001"
   cy="117.6"
   r="0.80000001" />
        <circle
   id="rightTop1"
   cx="466.10001"
   cy="127.1"
   r="0.80000001" />
      </g>
    </g>
  </g><g
   id="illustration"
   opacity="0.1"><g
     id="left-shoe">
      <path
   style="fill:red"
   d="M523.3,868v46.8c0,48.8,55.4,50.3,55.4,4.5v-51.8L523.3,868z"
   id="path425" />
      <rect
   x="535.7"
   y="889.3"
   style="fill:green;"
   width="30.6"
   height="4.4"
   id="rect427" />
      <rect
   x="535.7"
   y="897.7"
   style="fill:#FFFFFF;"
   width="30.6"
   height="4.4"
   id="rect429" />
      <rect
   x="535.7"
   y="906.2"
   style="fill:#FFFFFF;"
   width="30.6"
   height="4.4"
   id="rect431" />
    </g><g
     id="right-shoe">
      <path
   style="fill:#60504B;"
   d="M420,868v46.8c0,48.8,55.4,50.3,55.4,4.5v-51.8L420,868z"
   id="path433" />
      <rect
   x="432.4"
   y="889.3"
   style="fill:#FFFFFF;"
   width="30.6"
   height="4.4"
   id="rect437" />
      <rect
   x="432.4"
   y="897.7"
   style="fill:#FFFFFF;"
   width="30.6"
   height="4.4"
   id="rect439" />
      <rect
   x="432.4"
   y="906.2"
   style="fill:#FFFFFF;"
   width="30.6"
   height="4.4"
   id="rect441" />
    </g><path
     id="pants"
     style="fill:#000000;stroke-width:0.945287"
     d="M 410.34186,495.57054 404.14497,722 v 155.8 h 89.08866 V 723.3 l 11.58511,-155.3039 v 0 L 511.01563,723.3 v 154.5 h 81.94013 V 723.3 l -7.96744,-246.32014 z"
     sodipodi:nodetypes="ccccccccccccc" /><path
     id="shirt"
     style="fill:#1a1a1a;stroke-width:0.876993"
     d="m 412.01347,507.12206 c 0,-47.3 -12.53174,-117.97354 -12.03278,-169.84957 -5.00641,-14.50661 -0.58392,-39.83726 9.49151,-50.83726 12.07512,-13.2 69.45858,-8.53523 87.99428,-8.53523 20.07394,0 77.06913,-6.60261 89.75955,8.49739 7.9219,9.4 9.94538,30.66212 15.48303,43.86212 -5.91139,51.31736 -21.0629,126.33657 -21.0629,176.23657 z"
     sodipodi:nodetypes="cccscccc" /><path
     id="shirt-sleeve-right"
     style="fill:#1a1a1a"
     d="M285.8,267.1l3,56.8c58.9,0.3,93.5-2.3,119.3,17.7l48.7-50.2C402.5,264.7,341.8,263.7,285.8,267.1z" /><path
     id="shirt-sleeve-left"
     style="fill:#1a1a1a"
     d="M545.7,290.4l43.3,53.2c27-16.2,67.7-16.3,126.6-16.7v-56.8C659.6,266.7,616.4,259.7,545.7,290.4z" /><ellipse
     id="shirt-collar"
     style="fill:#deaa87;stroke-width:0.713012"
     ry="10.166832"
     rx="19.291849"
     cy="284.14069"
     cx="500.10349" /><path
     id="hand-thumb-left"
     style="fill:#F3AF9D;"
     d="M843.8,326.2l17-6.8c0,0,6.1,5.5,13,11.2s-4.7,18.4-15.3,10.6C847.8,333.4,843.8,326.2,843.8,326.2z" /><path
     id="hand-thumb-right"
     style="fill:#F3AF9D;"
     d="M155.6,326.2l-17-6.8c0,0-6.1,5.5-13,11.2c-6.9,5.7,4.7,18.4,15.3,10.6   C151.6,333.4,155.6,326.2,155.6,326.2z" /><path
     id="forearm-right"
     style="fill:#F3AF9D;"
     d="M291,273.7c-47.7,2.7-123.1,8.9-160.2,14.2c-37.1,5.3-40.1,40.1,5.3,39.5s95.2-3.5,159.7-12.1   L291,273.7z" /><path
     id="forearm-left"
     style="fill:#F3AF9D;"
     d="M709.7,318.3c64.5,8.6,113.3,11.5,158.7,12.1s42.4-34.2,5.3-39.5c-37.1-5.3-114.5-11.5-162.2-14.2   L709.7,318.3z" /><path
     id="neck"
     style="fill:#f3af9d;stroke-width:0.987805"
     d="m 477.98891,242.44487 h 44.37424 c 0,0 1.30486,28.73864 4.27729,39.53872 -4.45865,4.4579 -11.49605,7.38415 -25.08434,7.29224 -17.40997,-0.0919 -24.16607,-5.57434 -26.71387,-9.15905 z"
     sodipodi:nodetypes="cccccc" /><path
     id="neck-shadow"
     style="fill:#d38d5f;stroke-width:0.993654"
     d="m 477.49319,242.44487 43.30501,5.00785 c 4.07908,8.73805 -34.79215,32.66406 -45.95597,32.66406 z"
     sodipodi:nodetypes="cccc" /><g
     id="head-group"
     transform="matrix(1,0,0,1.3083778,0,-40.338231)"><path
       sodipodi:nodetypes="scsss"
       id="hair"
       style="fill:#502d16;stroke-width:1.00091"
       d="m 500.4211,123.88213 c -25.45048,0 -83.89237,15.59378 -52.78621,75.11072 23.37677,44.74399 83.77161,43.88362 103.22855,-0.0349 32.6764,-73.75769 -50.44234,-81.9418 -50.44234,-75.07583 z" /><ellipse
       id="ear-left"
       ry="9.425705"
       rx="5.532444"
       style="fill:#d38d5f;stroke-width:0.596802"
       cx="527.31879"
       cy="219.22838"
       transform="matrix(0.99851762,-0.0544294,0.0929098,0.99567453,0,0)" /><ellipse
       id="ear-right"
       ry="11.28339"
       rx="4.9675765"
       style="fill:#d38d5f;stroke-width:0.618738"
       cx="476.60828"
       cy="143.54311"
       transform="matrix(0.99557743,0.09394454,-0.15946651,0.98720334,0,0)" /><path
       style="fill:#d8b07b;fill-opacity:1;stroke-width:0.997592"
       d="m 478.22503,135.44145 -13.69686,7.89126 c 0,0 -10.14049,9.32195 -12.46432,19.04832 0,0 -0.13244,6.04807 -0.57508,10.10777 0,1.26866 0.85999,4.89156 1.08131,8.19007 -0.5533,2.02985 -1.45589,6.41276 -1.67721,9.03465 0.33198,4.22886 1.79307,9.38753 2.89966,13.36266 1.10659,3.38309 3.34071,8.91816 5.66454,12.21667 3.98372,3.97512 6.19377,6.20163 12.61198,10.51507 2.65581,2.11442 5.78209,3.6908 10.87239,5.63607 7.74612,1.69154 7.6772,1.76151 16.30859,2.69186 8.63139,-0.7612 8.56634,-0.74841 16.09114,-2.35538 5.86492,-2.36816 5.88932,-2.40968 11.75424,-6.0465 0,0 7.50972,-5.22251 12.71069,-10.46629 1.8812,-2.79105 3.75686,-8.93463 6.41267,-16.54658 1.21725,-3.80597 1.89045,-6.57579 2.11177,-10.60574 -0.39124,-2.15298 -1.10582,-4.17675 -1.41881,-7.52583 0.19839,-4.30545 0.17683,-4.28651 0.17683,-8.11403 -0.0553,-2.36816 -0.59314,-7.38937 -0.86979,-9.84211 -0.15649,-2.33239 -2.01387,-5.64591 -2.7181,-7.73909 -1.4867,-2.452 -7.968,-11.56159 -7.968,-11.56159 l -13.80642,-7.89126 -21.80541,-2.07665 z"
       id="face-skin"
       sodipodi:nodetypes="cccccccccccccccccccccccc" /><path
       style="stroke-width:1.12878"
       id="hair-top"
       class="hair"
       d="m 444.57182,152.77007 c 2.32758,8.00842 52.51132,-19.06339 72.74154,-0.30352 59.08697,3.09361 37.95639,-20.06459 31.83119,-23.18474 -5.39016,-2.70415 -21.56358,-17.17545 -37.4891,-4.69479 -9.42141,-4.38999 -21.74728,-8.07127 -36.77403,-6.41443 -17.15372,1.9464 -35.69947,15.87642 -30.3096,34.59748 z" /><g
       id="face-group"
       transform="matrix(1.070732,0,0,1.2279953,-34.889719,-13.442627)"><g
         transform="translate(2.7470047,4.7725009)"
         id="left-brow-group">
          <path
   id="path5660"
   class="hair"
   style="stroke-width:0.0542748"
   d="m 529.05355,146.35803 c 1.08163,0.19579 6.3275,5.05146 6.3275,5.87379 0,0.70485 -0.0541,0.66569 -3.89384,-1.17476 -3.7316,-1.84045 -5.7326,-2.19288 -9.89684,-1.76213 -3.7316,0.39158 -17.79269,1.44886 -17.95494,1.33139 -0.0541,-0.0392 0.48673,-0.70486 1.18978,-1.48803 l 1.35203,-1.44887 4.70506,-0.15663 c 4.48874,-0.15664 12.38458,-0.74401 15.68352,-1.17476 0.81122,-0.11748 1.94692,-0.11748 2.48773,0 z" />
          <circle
   id="leftBrow1_1_"
   cx="530.09998"
   cy="148.7"
   r="0.80000001" />
          <circle
   id="leftBrow4_1_"
   cx="506.5"
   cy="150.8"
   r="0.80000001" />
          <circle
   id="leftBrow3_1_"
   cx="516.5"
   cy="147.60001"
   r="0.80000001" />
          <circle
   id="leftBrow0_1_"
   cx="534.09998"
   cy="151.60001"
   r="0.80000001" />
          <circle
   id="leftBrow2_1_"
   cx="523.79999"
   cy="147.2"
   r="0.80000001" />
        </g><g
         transform="translate(-0.66504517,3.9136101)"
         id="right-brow-group">
          <path
   d="m 467.25721,146.99592 c -1.08163,0.19579 -6.3275,5.05146 -6.3275,5.87379 0,0.70485 0.0541,0.66569 3.89384,-1.17476 3.7316,-1.84045 5.7326,-2.19288 9.89684,-1.76213 3.7316,0.39158 17.79269,1.44886 17.95494,1.33139 0.0541,-0.0392 -0.48673,-0.70486 -1.18978,-1.48803 l -1.35203,-1.44887 -4.70506,-0.15663 c -4.48874,-0.15664 -12.38458,-0.74401 -15.68352,-1.17476 -0.81122,-0.11748 -1.94692,-0.11748 -2.48773,0 z"
   class="hair"
   id="right-brow" />
          <circle
   id="rightBrow1_1_"
   cx="466.39999"
   cy="148.3"
   r="0.80000001" />
          <circle
   id="rightBrow4_1_"
   cx="489.70001"
   cy="151.3"
   r="0.80000001" />
          <circle
   id="rightBrow3_1_"
   cx="479.89999"
   cy="147.3"
   r="0.80000001" />
          <circle
   id="rightBrow0_1_"
   cx="462.39999"
   cy="152"
   r="0.80000001" />
          <circle
   id="rightBrow2_1_"
   cx="472.60001"
   cy="147.3"
   r="0.80000001" />
        </g><g
         id="left-eye-group"
         style="fill:#000000"
         transform="matrix(0.93049033,0,0,0.6879266,33.138801,49.256627)">
          <ellipse
   style="fill:#d38d5f;stroke-width:1.22211"
   id="left-eye-shadow"
   cx="482.40891"
   cy="229.22758"
   rx="17.258049"
   ry="6.5037093"
   transform="matrix(0.99132652,-0.13142198,0.1976594,0.98027076,0,0)" /><path
   id="left-eye"
   style="stroke-width:0.0710192"
   d="m 513.54926,158.63613 c -1.81492,1.59795 -3.26687,3.4738 -3.26687,4.23803 0,1.25058 0.29039,1.18109 2.5409,-0.76423 3.12167,-2.57061 4.86399,-2.70957 6.46112,-0.48633 1.59713,2.36219 4.9366,2.918 7.69528,1.38952 2.03271,-1.18109 2.10531,-1.32005 0.72597,-1.80638 -1.81492,-0.62529 -1.88753,-1.73691 -0.0726,-2.29272 0.87116,-0.27789 3.12167,0.41687 5.80775,1.73691 5.44477,2.64009 6.02555,1.38953 1.01636,-2.36219 -3.33946,-2.50114 -2.7647,-1.90201 -9.73003,-2.18253 l -7.91103,-0.31861 z" />
          <circle
   id="leftEye0_1_"
   cx="528.20001"
   cy="160.2"
   r="0.80000001" />
          <circle
   id="leftEye1_1_"
   cx="523"
   cy="156.5"
   r="0.80000001" />
          <circle
   id="leftEye5_1_"
   cx="523"
   cy="162.5"
   r="0.80000001" />
          <circle
   id="leftEye2_1_"
   cx="516.70001"
   cy="156.5"
   r="0.80000001" />
          <circle
   id="leftEye3_1_"
   cx="511.5"
   cy="160.7"
   r="0.80000001" />
          <circle
   id="leftEye4_1_"
   cx="516.70001"
   cy="161.7"
   r="0.80000001" />
        </g><g
         id="right-eye-group"
         style="fill:#000000"
         transform="matrix(0.92084529,0,0,0.75114822,40.443434,40.133005)">
          <ellipse
   style="fill:#d38d5f;stroke-width:1.04486"
   id="right-eye-shadow"
   cx="460.4953"
   cy="129.60307"
   rx="18.015574"
   ry="6.6596494"
   transform="matrix(0.99773304,0.06729615,0.11750454,0.99307235,0,0)" /><path
   id="right-eye-shape"
   style="stroke-width:0.0642131"
   d="m 466.94433,155.5249 c -5.84676,2.00851 -8.27743,4.83297 -4.79566,5.7117 2.2336,0.56489 2.36498,0.50213 2.2336,-1.31809 -0.13139,-1.44361 0.19708,-1.75744 2.62776,-2.44787 l 2.75914,-0.75319 0.45986,1.94574 c 0.65694,2.95 1.44527,3.57766 4.53288,3.57766 3.21901,0 5.25552,-1.50638 3.02192,-2.1968 -1.97081,-0.5649 -1.70804,-1.38086 0.59125,-1.88298 1.57665,-0.31383 2.75915,0.0628 5.97815,1.88298 2.1679,1.31808 4.13872,2.13404 4.3358,1.94574 0.52555,-0.43936 -4.3358,-5.39787 -5.32121,-5.39787 -0.32847,0 -1.1168,-0.43936 -1.70805,-0.94149 -0.59124,-0.50213 -3.02192,-1.06702 -5.64967,-1.25532 -3.74456,-0.31383 -5.32121,-0.12553 -9.06577,1.12979 z" />
          <circle
   id="rightEye0_1_"
   cx="468.60001"
   cy="160.2"
   r="0.80000001" />
          <circle
   id="rightEye1_1_"
   cx="473.79999"
   cy="156.5"
   r="0.80000001" />
          <circle
   id="rightEye5_1_"
   cx="473.79999"
   cy="162.5"
   r="0.80000001" />
          <circle
   id="rightEye2_1_"
   cx="480.10001"
   cy="156.5"
   r="0.80000001" />
          <circle
   id="rightEye3_1_"
   cx="485.29999"
   cy="160.7"
   r="0.80000001" />
          <circle
   id="rightEye4_1_"
   cx="480.10001"
   cy="161.7"
   r="0.80000001" />
        </g><g
         id="nose-group"
         transform="matrix(0.96808946,0,0,0.86144348,16.658826,23.72653)">
          <path
   style="fill:#502d16;stroke-width:0.0508889"
   d="m 488.6054,176.28606 c -0.5556,0.75934 0.0251,1.24747 1.50526,1.24747 0.90718,0 2.53646,0.7051 4.03212,1.68137 2.17183,1.46442 2.77923,1.62714 4.53623,1.35595 1.15927,-0.16272 2.454,-0.81357 2.90078,-1.41017 0.38755,-0.65088 1.55055,-1.2475 2.45958,-1.46444 0.92053,-0.16271 1.74742,-0.54238 1.84478,-0.75934 0.24618,-0.86779 -2.21557,-0.54236 -4.55299,0.59663 -2.99628,1.41018 -4.24916,1.35594 -7.69684,-0.27119 -2.81737,-1.35594 -4.6051,-1.68138 -5.02892,-0.97628 z"
   id="nose-bottom" /><rect
   style="fill:#d38d5f;stroke-width:0.795167"
   id="nose-shadow"
   width="2.6753411"
   height="17.168386"
   x="511.92435"
   y="166.65773"
   transform="matrix(0.99983962,-0.01790924,-0.11218811,0.99368699,0,0)"
   ry="1.5791516" />
          <circle
   id="nose1_1_"
   cx="497.60001"
   cy="161.2"
   r="0.80000001" />
          <circle
   id="nose0_1_"
   cx="497.60001"
   cy="155.39999"
   r="0.80000001" />
          <circle
   id="nose3_1_"
   cx="497.60001"
   cy="173.8"
   r="0.80000001" />
          <circle
   id="rightNose0_1_"
   cx="486.89999"
   cy="178.3"
   r="0.80000001" />
          <circle
   id="rightNose1_1_"
   cx="492.10001"
   cy="178.3"
   r="0.80000001" />
          <circle
   id="nose2_1_"
   cx="497.60001"
   cy="166.7"
   r="0.80000001" />
          <circle
   id="nose4_1_"
   cx="497.60001"
   cy="179.10001"
   r="0.80000001" />
          <circle
   id="leftNose0_1_"
   cx="508"
   cy="178.3"
   r="0.80000001" />
          <circle
   id="leftNose1_1_"
   cx="503.20001"
   cy="178.3"
   r="0.80000001" />
        </g><g
         id="mouth-group"
         transform="matrix(1.2025522,0,0,1,-101.2435,-24.276566)"
         inkscape:transform-center-x="0.65626415"
         inkscape:transform-center-y="-3.7240047"
         style="fill:#502d16"><path
           id="mouth"
           d="m 488,208.6731 c 0,0 7.7,-0.15946 11.3,-0.15946 3.6,0 11.9,-0.15945 11.9,-0.15945 0,0 -6.9,4.14581 -11.9,4.14581 -5.1,0 -11.3,-3.8269 -11.3,-3.8269 z"
           style="fill:#28170b;stroke:#000000;stroke-width:2.5255;stroke-miterlimit:10" /><circle
           id="upperLipBottomMid_1_"
           cx="499.29999"
           cy="209.89999"
           r="0.5"
           style="fill:#502d16" /><circle
           id="rightUpperLipBottom1_1_"
           cx="496.79999"
           cy="209.60001"
           r="0.5"
           style="fill:#502d16" /><circle
           id="leftUpperLipBottom1_1_"
           cx="501.79999"
           cy="209.60001"
           r="0.5"
           style="fill:#502d16" /><circle
           id="lowerLipTopMid_2_"
           cx="499.29999"
           cy="211.89999"
           r="0.5"
           style="fill:#502d16" /><circle
           id="rightLowerLipTop0_2_"
           cx="496.79999"
           cy="211.39999"
           r="0.5"
           style="fill:#502d16" /><circle
           id="leftLowerLipTop0_2_"
           cx="501.79999"
           cy="211.39999"
           r="0.5"
           style="fill:#502d16" /><path
           id="rightMiddleLip_2_"
           d="m 487.5,209.6 c 0.3,0 0.5,0.3 0.5,0.5 0,0.2 -0.3,0.5 -0.5,0.5 -0.3,0 -0.5,-0.3 -0.5,-0.5 0,-0.2 0.3,-0.5 0.5,-0.5 z"
           style="fill:#502d16" /><path
           id="leftMiddleLip_2_"
           d="m 511.1,209.6 c 0.3,0 0.5,0.3 0.5,0.5 0,0.2 -0.3,0.5 -0.5,0.5 -0.2,0 -0.5,-0.3 -0.5,-0.5 0,-0.2 0.2,-0.5 0.5,-0.5 z"
           style="fill:#502d16" /></g></g></g></g>
</svg>
