<?xml version="1.0" encoding="UTF-8" standalone="no"?>
<svg
   xmlns:dc="http://purl.org/dc/elements/1.1/"
   xmlns:cc="http://creativecommons.org/ns#"
   xmlns:rdf="http://www.w3.org/1999/02/22-rdf-syntax-ns#"
   xmlns:svg="http://www.w3.org/2000/svg"
   xmlns="http://www.w3.org/2000/svg"
   xmlns:sodipodi="http://sodipodi.sourceforge.net/DTD/sodipodi-0.dtd"
   xmlns:inkscape="http://www.inkscape.org/namespaces/inkscape"
   version="1.1"
   id="Layer_1"
   x="0px"
   y="0px"
   width="1000px"
   height="1000px"
   viewBox="0 0 1000 1000"
   style="enable-background:new 0 0 1000 1000;"
   xml:space="preserve"
   sodipodi:docname="pablo.svg"
   inkscape:version="1.0 (4035a4f, 2020-05-01)"><metadata
   id="metadata664"><rdf:RDF><cc:Work
       rdf:about=""><dc:format>image/svg+xml</dc:format><dc:type
         rdf:resource="http://purl.org/dc/dcmitype/StillImage" /></cc:Work></rdf:RDF></metadata><defs
   id="defs662" /><sodipodi:namedview
   inkscape:document-rotation="0"
   pagecolor="#ffffff"
   bordercolor="#666666"
   borderopacity="1"
   objecttolerance="10"
   gridtolerance="10"
   guidetolerance="10"
   inkscape:pageopacity="0"
   inkscape:pageshadow="2"
   inkscape:window-width="1440"
   inkscape:window-height="878"
   id="namedview660"
   showgrid="false"
   inkscape:zoom="6.2773443"
   inkscape:cx="466.35158"
   inkscape:cy="166.74643"
   inkscape:window-x="0"
   inkscape:window-y="0"
   inkscape:window-maximized="1"
   inkscape:current-layer="Layer_1" />
<g
   id="illustration">
	<path
   style="fill:#60504B;"
   d="M523.3,868v46.8c0,48.8,55.4,50.3,55.4,4.5v-51.8L523.3,868z"
   id="path425" />
	<rect
   x="535.7"
   y="889.3"
   style="fill:#FFFFFF;"
   width="30.6"
   height="4.4"
   id="rect427" />
	<rect
   x="535.7"
   y="897.7"
   style="fill:#FFFFFF;"
   width="30.6"
   height="4.4"
   id="rect429" />
	<rect
   x="535.7"
   y="906.2"
   style="fill:#FFFFFF;"
   width="30.6"
   height="4.4"
   id="rect431" />
	<path
   style="fill:#60504B;"
   d="M420,868v46.8c0,48.8,55.4,50.3,55.4,4.5v-51.8L420,868z"
   id="path433" />
	<path
   style="fill:#000000;stroke-width:0.945287"
   d="m 404.14497,493.8 c 0,66.4 0,148.9 0,228.2 0,55.8 0,110 0,155.8 50.57592,0 52.54177,0 89.08866,0 0,-46.8 0,-101.4 0,-154.5 0,-75.9 0,-148.8 0,-191.6 5.27205,0 12.95674,0 17.782,0 0,41.3 0,115.8 0,191.6 0,54.9 0,110.4 0,154.5 40.21053,0 30.91743,0 81.94013,0 0,-43 0,-97.5 0,-154.5 0,-79.5 0,-164 0,-229.5 z"
   id="path435" />
	<rect
   x="432.4"
   y="889.3"
   style="fill:#FFFFFF;"
   width="30.6"
   height="4.4"
   id="rect437" />
	<rect
   x="432.4"
   y="897.7"
   style="fill:#FFFFFF;"
   width="30.6"
   height="4.4"
   id="rect439" />
	<rect
   x="432.4"
   y="906.2"
   style="fill:#FFFFFF;"
   width="30.6"
   height="4.4"
   id="rect441" />
	<path
   style="fill:#1a1a1a;stroke-width:0.876993"
   d="m 403.24974,509 c 0,-47.3 -13.85896,-131.31846 5.44586,-181.81846 6.46057,-16.8 13.63514,-26.99423 23.71057,-37.99423 12.07512,-13.2 46.52461,-11.28731 65.06031,-11.28731 20.07394,0 51.84176,-4.76789 64.53218,10.33211 7.9219,9.4 19.11897,30.66212 24.65662,43.86212 21.1507,50.4 6.25854,127.00577 6.25854,176.90577 z"
   id="path443"
   sodipodi:nodetypes="cccscccc" />
	<line
   style="fill:none;"
   x1="616.8"
   y1="509.6"
   x2="384"
   y2="509.6"
   id="line445" />
	<ellipse
   style="fill:#deaa87;stroke-width:0.713012"
   id="ellipse447"
   ry="10.166832"
   rx="19.291849"
   cy="284.14069"
   cx="500.10349" />
	<path
   style="fill:#F3AF9D;"
   d="M843.8,326.2l17-6.8c0,0,6.1,5.5,13,11.2s-4.7,18.4-15.3,10.6C847.8,333.4,843.8,326.2,843.8,326.2z   "
   id="path449" />
	<path
   style="fill:#1a1a1a"
   d="M285.8,267.1l3,56.8c58.9,0.3,93.5-2.3,119.3,17.7l48.7-50.2C402.5,264.7,341.8,263.7,285.8,267.1z"
   id="path451" />
	<path
   style="fill:#1a1a1a"
   d="M545.7,290.4l43.3,53.2c27-16.2,67.7-16.3,126.6-16.7v-56.8C659.6,266.7,616.4,259.7,545.7,290.4z"
   id="path453" />
	<path
   style="fill:#F3AF9D;"
   d="M291,273.7c-47.7,2.7-123.1,8.9-160.2,14.2c-37.1,5.3-40.1,40.1,5.3,39.5s95.2-3.5,159.7-12.1   L291,273.7z"
   id="path455" />
	<path
   style="fill:#F3AF9D;"
   d="M155.6,326.2l-17-6.8c0,0-6.1,5.5-13,11.2c-6.9,5.7,4.7,18.4,15.3,10.6   C151.6,333.4,155.6,326.2,155.6,326.2z"
   id="path457" />
	<path
   style="fill:#F3AF9D;"
   d="M709.7,318.3c64.5,8.6,113.3,11.5,158.7,12.1s42.4-34.2,5.3-39.5c-37.1-5.3-114.5-11.5-162.2-14.2   L709.7,318.3z"
   id="path459" />
	<path
   style="fill:#f3af9d;stroke-width:0.871369"
   d="m 489.5,211.9 h 20.9 c 0,0 4.3,51.09986 5.7,68.94306 -2.1,7.36506 -9.1,8.57991 -15.5,8.42806 -8.2,-0.15186 -15.9,-3.56864 -17.1,-9.49106 z"
   id="path461" />
	<path
   style="fill:#dd9b8e;stroke-width:0.886663"
   d="m 489.5,211.9 h 20.9 c 1.9,14.93724 -21.6,70.28364 -26.8,70.28364 z"
   id="path463" />
	<path
   style="fill:#502d16;stroke-width:0.920498"
   d="m 498.92102,113 c -22.87754,0 -75.41117,8 -47.44973,64 21.01346,42.1 74.56387,44 93.20484,3 18.64096,-41 -3.38927,-67 -45.75511,-67 z"
   id="path465" />
	<ellipse
   ry="12.1"
   rx="7.1436529"
   style="fill:#df7977;stroke-width:0.768365"
   cx="539.24365"
   cy="182.8"
   id="circle467" />
	<ellipse
   ry="12.1"
   rx="6.1298547"
   style="fill:#df7977;stroke-width:0.711758"
   cx="453.57016"
   cy="182.8"
   id="circle469" />
	<ellipse
   style="fill:#f3af9d;stroke-width:0.880177"
   cx="497.99768"
   cy="177.39999"
   rx="44.158554"
   ry="57.599998"
   id="ellipse471" />
	<g
   id="g483"
   transform="matrix(1.0622662,0,0,0.43976777,-29.753647,115.73345)"><circle
   id="lowerLipTopMid_2_"
   cx="499.29999"
   cy="211.89999"
   r="0.5" />
		<circle
   id="rightLowerLipTop0_2_"
   cx="496.79999"
   cy="211.39999"
   r="0.5" />
		<circle
   id="leftLowerLipTop0_2_"
   cx="501.79999"
   cy="211.39999"
   r="0.5" />
	<path
   id="suit_lip"
   d="m 514.01353,206.34076 c -2.10229,2.8 -3.66554,3.06667 -16.81835,3.46667 -1.23981,0.13333 -2.85696,0.66666 -3.66553,1.46666 -1.83277,1.73334 -11.32005,-0.66666 -13.36843,-3.46666 -1.40153,-2 -1.45543,-1.86667 -1.99448,1.46666 -0.70076,4.53334 -0.21562,6.4 1.07809,4.4 0.86249,-1.33333 1.99449,-1.2 5.60612,0.66667 2.47963,1.2 6.36078,2.26667 8.62479,2.26667 2.31791,0 4.63583,0.66666 5.22878,1.33333 0.70077,1.06667 1.34763,0.93333 2.26401,-0.13333 0.64686,-0.93334 3.55773,-2.13334 6.41469,-2.66667 3.07258,-0.4 5.66002,-1.6 6.14516,-2.66667 0.70077,-1.33333 0.91639,-1.33333 1.29372,0.13334 0.21562,0.93333 0.80858,1.33333 1.29372,0.93333 0.91638,-0.93333 1.0781,-4 0.43123,-7.73333 -0.32342,-2 -0.59294,-1.86667 -2.53352,0.53333 z"
   style="stroke-width:0.0847779" /></g>
	<g
   id="g495">
		<path
   id="path680"
   d="m 465.1553,171.83511 c -5.84676,2.00851 -8.27743,4.83297 -4.79566,5.7117 2.2336,0.56489 2.36498,0.50213 2.2336,-1.31809 -0.13139,-1.44361 0.19708,-1.75744 2.62776,-2.44787 l 2.75914,-0.75319 0.45986,1.94574 c 0.65694,2.95 1.44527,3.57766 4.53288,3.57766 3.21901,0 5.25552,-1.50638 3.02192,-2.1968 -1.97081,-0.5649 -1.70804,-1.38086 0.59125,-1.88298 1.57665,-0.31383 2.75915,0.0628 5.97815,1.88298 2.1679,1.31808 4.13872,2.13404 4.3358,1.94574 0.52555,-0.43936 -4.3358,-5.39787 -5.32121,-5.39787 -0.32847,0 -1.1168,-0.43936 -1.70805,-0.94149 -0.59124,-0.50213 -3.02192,-1.06702 -5.64967,-1.25532 -3.74456,-0.31383 -5.32121,-0.12553 -9.06577,1.12979 z"
   style="stroke-width:0.0642131" />
		
		<circle
   id="rightEye0_1_"
   cx="468.6"
   cy="160.2"
   r="0.8" />
		<circle
   id="rightEye1_1_"
   cx="473.8"
   cy="156.5"
   r="0.8" />
		<circle
   id="rightEye5_1_"
   cx="473.8"
   cy="162.5"
   r="0.8" />
		<circle
   id="rightEye2_1_"
   cx="480.1"
   cy="156.5"
   r="0.8" />
		<circle
   id="rightEye3_1_"
   cx="485.3"
   cy="160.7"
   r="0.8" />
		<circle
   id="rightEye4_1_"
   cx="480.1"
   cy="161.7"
   r="0.8" />
	</g>
	<g
   id="g507">
		<path
   style="stroke-width:0.0710192"
   d="m 513.40548,172.77386 c -1.81492,1.59795 -3.26687,3.4738 -3.26687,4.23803 0,1.25058 0.29039,1.18109 2.5409,-0.76423 3.12167,-2.57061 4.86399,-2.70957 6.46112,-0.48633 1.59713,2.36219 4.9366,2.918 7.69528,1.38952 2.03271,-1.18109 2.10531,-1.32005 0.72597,-1.80638 -1.81492,-0.62529 -1.88753,-1.73691 -0.0726,-2.29272 0.87116,-0.27789 3.12167,0.41687 5.80775,1.73691 5.44477,2.64009 6.02555,1.38953 1.01636,-2.36219 -3.33946,-2.50114 -2.7647,-1.90201 -9.73003,-2.18253 l -7.91103,-0.31861 z"
   id="path587"
   sodipodi:nodetypes="csccccccsscc" />
		
		<circle
   id="leftEye0_1_"
   cx="528.2"
   cy="160.2"
   r="0.8" />
		<circle
   id="leftEye1_1_"
   cx="523"
   cy="156.5"
   r="0.8" />
		<circle
   id="leftEye5_1_"
   cx="523"
   cy="162.5"
   r="0.8" />
		<circle
   id="leftEye2_1_"
   cx="516.7"
   cy="156.5"
   r="0.8" />
		<circle
   id="leftEye3_1_"
   cx="511.5"
   cy="160.7"
   r="0.8" />
		<circle
   id="leftEye4_1_"
   cx="516.7"
   cy="161.7"
   r="0.8" />
	</g>
	<g
   id="g516">
		<path
   style="fill:#552200;stroke-width:1.1794"
   d="m 511.29318,161.9 c 14.88349,-5 19.75192,-5 26.70682,0.7 -6.9549,-0.7 -7.92859,2.8 -26.70682,-0.7 z"
   id="path509" />
		<circle
   id="leftBrow1_1_"
   cx="530.1"
   cy="148.7"
   r="0.8" />
		<circle
   id="leftBrow4_1_"
   cx="506.5"
   cy="150.8"
   r="0.8" />
		<circle
   id="leftBrow3_1_"
   cx="516.5"
   cy="147.6"
   r="0.8" />
		<circle
   id="leftBrow0_1_"
   cx="534.1"
   cy="151.6"
   r="0.8" />
		<circle
   id="leftBrow2_1_"
   cx="523.8"
   cy="147.2"
   r="0.8" />
	</g>
	<g
   id="g525">
		<path
   style="fill:#552200;stroke-width:1.1794"
   d="m 485.50682,161.9 c -14.88349,-5 -19.75192,-5 -26.70682,0.7 6.9549,-0.7 7.92859,2.8 26.70682,-0.7 z"
   id="path518" />
		<circle
   id="rightBrow1_1_"
   cx="466.4"
   cy="148.3"
   r="0.8" />
		<circle
   id="rightBrow4_1_"
   cx="489.7"
   cy="151.3"
   r="0.8" />
		<circle
   id="rightBrow3_1_"
   cx="479.9"
   cy="147.3"
   r="0.8" />
		<circle
   id="rightBrow0_1_"
   cx="462.4"
   cy="152"
   r="0.8" />
		<circle
   id="rightBrow2_1_"
   cx="472.6"
   cy="147.3"
   r="0.8" />
	</g>
	<path
   style="fill:#552200"
   d="m 456,138 c 1.9,7.7 42.86503,-18.32924 59.37897,-0.29184 48.23273,2.97448 30.98382,-19.29186 25.98382,-22.29186 -4.4,-2.6 -17.60237,-16.513997 -30.60237,-4.514 -7.69072,-4.22091 -17.75233,-7.76042 -30.01867,-6.16739 C 466.73916,106.60636 451.60026,119.99991 456,138 Z"
   id="path527"
   sodipodi:nodetypes="cccccc" />
	<g
   id="g540">
		<path
   style="fill:#2C323A;stroke:#2C323A;stroke-width:2;stroke-miterlimit:10;"
   d="M496.4,185.8c-1.2,0-4.6,1.6-5.8,5.2    c-0.2,1.2,0.6,5.8,6,4.1c-0.1-1-4.7-1.1-4.5-3.7C492.4,189.6,494.1,189.6,496.4,185.8z"
   id="path529" />
		<circle
   id="nose1_1_"
   cx="497.6"
   cy="161.2"
   r="0.8" />
		<circle
   id="nose0_1_"
   cx="497.6"
   cy="155.4"
   r="0.8" />
		<circle
   id="nose3_1_"
   cx="497.6"
   cy="173.8"
   r="0.8" />
		<circle
   id="rightNose0_1_"
   cx="486.9"
   cy="178.3"
   r="0.8" />
		<circle
   id="rightNose1_1_"
   cx="492.1"
   cy="178.3"
   r="0.8" />
		<circle
   id="nose2_1_"
   cx="497.6"
   cy="166.7"
   r="0.8" />
		<circle
   id="nose4_1_"
   cx="497.6"
   cy="179.1"
   r="0.8" />
		<circle
   id="leftNose0_1_"
   cx="508"
   cy="178.3"
   r="0.8" />
		<circle
   id="leftNose1_1_"
   cx="503.2"
   cy="178.3"
   r="0.8" />
	</g>
</g>
<g
   id="skeleton_1_">
	<circle
   id="rightShoulder"
   cx="392.8"
   cy="294.3"
   r="8.2" />
	<circle
   id="rightElbow"
   cx="289.3"
   cy="294.4"
   r="8.2" />
	
		<ellipse
   rx="8.2"
   ry="8.2"
   id="rightWrist"
   transform="matrix(0.9951 -9.853767e-02 9.853767e-02 0.9951 -29.0274 13.8698)"
   cx="125.9"
   cy="300.8" />
	<circle
   id="rightHip"
   cx="443.1"
   cy="510.1"
   r="8.2" />
	<circle
   id="rightKnee"
   cx="449.5"
   cy="670.3"
   r="8.2" />
	<circle
   id="rightAnkle"
   cx="449.5"
   cy="878.3"
   r="8.2" />
	<circle
   id="leftShoulder"
   cx="605.7"
   cy="294.3"
   r="8.2" />
	<circle
   id="leftElbow"
   cx="710.1"
   cy="294"
   r="8.2" />
	<circle
   id="leftWrist"
   cx="873.5"
   cy="300.3"
   r="8.2" />
	<circle
   id="leftHip"
   cx="559.5"
   cy="509.3"
   r="8.2" />
	<circle
   id="leftKnee"
   cx="559.5"
   cy="670.3"
   r="8.2" />
	<circle
   id="leftAnkle"
   cx="559.5"
   cy="878.3"
   r="8.2" />
	<polygon
   style="fill:none;stroke:#000000;stroke-miterlimit:10;"
   points="392.7,294.6 443,510.4 559.4,509.6 605.6,294.6  "
   id="polygon555" />
	<polyline
   style="fill:none;stroke:#000000;stroke-miterlimit:10;"
   points="391.7,294.6 289,294.6 125.7,300.9  "
   id="polyline557" />
	<polyline
   style="fill:none;stroke:#000000;stroke-miterlimit:10;"
   points="607.1,294.2 710.3,294.2 873.6,300.6  "
   id="polyline559" />
	<polyline
   style="fill:none;stroke:#000000;stroke-miterlimit:10;"
   points="443,510.4 449.4,670.6 449.4,878.6  "
   id="polyline561" />
	<polyline
   style="fill:none;stroke:#000000;stroke-miterlimit:10;"
   points="559.4,509.6 559.4,670.6 559.4,878.6  "
   id="polyline563" />
	<circle
   id="rightEye0"
   cx="468.6"
   cy="160.2"
   r="0.8" />
	<circle
   id="rightBrow1"
   cx="466.4"
   cy="148.3"
   r="0.8" />
	<circle
   id="rightBrow4"
   cx="489.7"
   cy="151.3"
   r="0.8" />
	<circle
   id="nose1"
   cx="497.6"
   cy="161.2"
   r="0.8" />
	<circle
   id="rightBrow3"
   cx="479.9"
   cy="147.3"
   r="0.8" />
	<circle
   id="rightEye1"
   cx="473.8"
   cy="156.5"
   r="0.8" />
	<circle
   id="rightBrow0"
   cx="462.4"
   cy="152"
   r="0.8" />
	<circle
   id="rightBrow2"
   cx="472.6"
   cy="147.3"
   r="0.8" />
	<circle
   id="rightEye5"
   cx="473.8"
   cy="162.5"
   r="0.8" />
	<circle
   id="rightEye2"
   cx="480.1"
   cy="156.5"
   r="0.8" />
	<circle
   id="rightEye3"
   cx="485.3"
   cy="160.7"
   r="0.8" />
	<circle
   id="nose0"
   cx="497.6"
   cy="155.4"
   r="0.8" />
	<circle
   id="nose3"
   cx="497.6"
   cy="173.8"
   r="0.8" />
	<circle
   id="rightNose0"
   cx="486.9"
   cy="178.3"
   r="0.8" />
	<circle
   id="rightMouthCorner"
   cx="480.9"
   cy="200.4"
   r="0.8" />
	<circle
   id="rightNose1"
   cx="492.1"
   cy="178.3"
   r="0.8" />
	<circle
   id="rightUpperLipTop0"
   cx="487.8"
   cy="197"
   r="0.8" />
	<circle
   id="nose2"
   cx="497.6"
   cy="166.7"
   r="0.8" />
	<circle
   id="nose4"
   cx="497.6"
   cy="179.1"
   r="0.8" />
	<circle
   id="upperLipTopMid"
   cx="498.4"
   cy="196.8"
   r="0.8" />
	<circle
   id="rightUpperLipTop1"
   cx="494.3"
   cy="195.9"
   r="0.8" />
	<path
   id="rightMiddleLip"
   d="M484.5,199.9c0.4,0,0.8,0.4,0.8,0.8c0,0.4-0.4,0.8-0.8,0.8s-0.8-0.4-0.8-0.8S484.1,199.9,484.5,199.9z   " />
	<circle
   id="lowerLipBottomMid"
   cx="498.4"
   cy="210"
   r="0.8" />
	<circle
   id="upperLipBottomMid"
   cx="498.4"
   cy="200.4"
   r="0.8" />
	<circle
   id="lowerLipTopMid"
   cx="498.4"
   cy="203.5"
   r="0.8" />
	<circle
   id="rightUpperLipBottom1"
   cx="494.5"
   cy="199.9"
   r="0.8" />
	<circle
   id="rightLowerLipTop0"
   cx="494.5"
   cy="202.8"
   r="0.8" />
	<circle
   id="rightLowerLipBottom1"
   cx="494.3"
   cy="209.5"
   r="0.8" />
	<circle
   id="rightLowerLipBottom0"
   cx="487.3"
   cy="206.7"
   r="0.8" />
	<circle
   id="rightEye4"
   cx="480.1"
   cy="161.7"
   r="0.8" />
	<circle
   id="jawMid"
   cx="498.4"
   cy="235.8"
   r="0.8" />
	<circle
   id="rightJaw7"
   cx="483.4"
   cy="232.6"
   r="0.8" />
	<circle
   id="rightJaw6"
   cx="473.4"
   cy="225.9"
   r="0.8" />
	<circle
   id="rightJaw5"
   cx="461.8"
   cy="213.4"
   r="0.8" />
	<circle
   id="rightJaw4"
   cx="455"
   cy="193.4"
   r="0.8" />
	<circle
   id="rightJaw3"
   cx="454.2"
   cy="171.7"
   r="0.8" />
	<circle
   id="rightJaw2"
   cx="454.2"
   cy="162.2"
   r="0.8" />
	<circle
   id="rightJaw1"
   cx="455"
   cy="150.5"
   r="0.8" />
	<circle
   id="rightJaw0"
   cx="457.5"
   cy="141.2"
   r="0.8" />
	<circle
   id="topMid"
   cx="498.6"
   cy="115.1"
   r="0.8" />
	<circle
   id="leftTop0"
   cx="518.3"
   cy="117.6"
   r="0.8" />
	<circle
   id="leftTop1"
   cx="530.9"
   cy="127.1"
   r="0.8" />
	<circle
   id="leftEye0"
   cx="528.2"
   cy="160.2"
   r="0.8" />
	<circle
   id="leftBrow1"
   cx="530.1"
   cy="148.7"
   r="0.8" />
	<circle
   id="leftBrow4"
   cx="506.5"
   cy="150.8"
   r="0.8" />
	<circle
   id="leftBrow3"
   cx="516.5"
   cy="147.6"
   r="0.8" />
	<circle
   id="leftEye1"
   cx="523"
   cy="156.5"
   r="0.8" />
	<circle
   id="leftBrow0"
   cx="534.1"
   cy="151.6"
   r="0.8" />
	<circle
   id="leftBrow2"
   cx="523.8"
   cy="147.2"
   r="0.8" />
	<circle
   id="leftEye5"
   cx="523"
   cy="162.5"
   r="0.8" />
	<circle
   id="leftEye2"
   cx="516.7"
   cy="156.5"
   r="0.8" />
	<circle
   id="leftEye3"
   cx="511.5"
   cy="160.7"
   r="0.8" />
	<circle
   id="leftNose0"
   cx="508"
   cy="178.3"
   r="0.8" />
	<circle
   id="leftMouthCorner"
   cx="515.9"
   cy="200.4"
   r="0.8" />
	<circle
   id="leftNose1"
   cx="503.2"
   cy="178.3"
   r="0.8" />
	<circle
   id="leftUpperLipTop0"
   cx="509"
   cy="197"
   r="0.8" />
	<circle
   id="leftUpperLipTop1"
   cx="502.6"
   cy="195.9"
   r="0.8" />
	<path
   id="leftMiddleLip"
   d="M512.3,199.9c0.4,0,0.8,0.4,0.8,0.8c0,0.4-0.4,0.8-0.8,0.8c-0.4,0-0.8-0.4-0.8-0.8   S511.9,199.9,512.3,199.9z" />
	<circle
   id="leftUpperLipBottom1"
   cx="502.4"
   cy="199.9"
   r="0.8" />
	<circle
   id="leftLowerLipTop0"
   cx="502.4"
   cy="202.8"
   r="0.8" />
	<circle
   id="leftLowerLipBottom1"
   cx="502.6"
   cy="209.5"
   r="0.8" />
	<circle
   id="leftLowerLipBottom0"
   cx="509.5"
   cy="206.7"
   r="0.8" />
	<circle
   id="leftEye4"
   cx="516.7"
   cy="161.7"
   r="0.8" />
	<circle
   id="leftJaw7"
   cx="513.2"
   cy="233"
   r="0.8" />
	<circle
   id="leftJaw6"
   cx="523.2"
   cy="226.3"
   r="0.8" />
	<circle
   id="leftJaw5"
   cx="534.8"
   cy="213.7"
   r="0.8" />
	<circle
   id="leftJaw4"
   cx="541.6"
   cy="193.7"
   r="0.8" />
	<circle
   id="leftJaw3"
   cx="542.4"
   cy="172.1"
   r="0.8" />
	<circle
   id="leftJaw2"
   cx="542.4"
   cy="162.5"
   r="0.8" />
	<circle
   id="leftJaw1"
   cx="541.6"
   cy="150.8"
   r="0.8" />
	<circle
   id="leftJaw0"
   cx="539.1"
   cy="141.6"
   r="0.8" />
	<polyline
   style="fill:none;stroke:#000000;stroke-miterlimit:10;"
   points="498.4,115.1 478.6,117.6 466.1,127.1 457.5,141.2    455,150.5 454.2,162.2 454.2,171.7 455,193.4 461.8,213.4 473.4,225.9 483.4,232.6 498.4,235.8 513.2,233 523.2,226.3 534.8,213.7    541.6,193.7 542.4,172.1 542.4,162.5 541.6,150.8 539.1,141.6 530.9,127.1 518.3,117.6 498.4,115.1  "
   id="polyline636" />
	<polyline
   style="fill:none;stroke:#000000;stroke-miterlimit:10;"
   points="462.4,152 466.4,148.3 472.6,147.3 479.9,147.3    489.7,151.3  "
   id="polyline638" />
	<polygon
   style="fill:none;stroke:#000000;stroke-miterlimit:10;"
   points="468.6,160.2 473.8,156.5 480.1,156.5 485.3,160.7    480.1,161.7 473.8,162.5  "
   id="polygon640" />
	<polyline
   style="fill:none;stroke:#000000;stroke-miterlimit:10;"
   points="486.9,178.3 492.1,178.3 497.6,179.1 497.6,173.8    497.6,166.7 497.6,161.2 497.6,155.4  "
   id="polyline642" />
	<polyline
   style="fill:none;stroke:#000000;stroke-miterlimit:10;"
   points="533.9,151.6 529.9,148.7 523.6,147.2 516.3,147.6    506.3,150.8  "
   id="polyline644" />
	<polygon
   style="fill:none;stroke:#000000;stroke-miterlimit:10;"
   points="528,160.2 522.7,156.5 516.4,156.5 511.3,160.7    516.4,161.7 522.7,162.5  "
   id="polygon646" />
	<polyline
   style="fill:none;stroke:#000000;stroke-miterlimit:10;"
   points="508,178.3 503,178.3 497.6,179.1  "
   id="polyline648" />
	<polygon
   style="fill:none;stroke:#000000;stroke-miterlimit:10;"
   points="480.9,200.4 487.8,197 494.3,195.9 498.4,196.8    502.6,195.9 509,197 515.9,200.4 509.5,206.7 502.4,209.5 498.4,210 494.3,209.5 487.3,206.7  "
   id="polygon650" />
	<polyline
   style="fill:none;stroke:#000000;stroke-miterlimit:10;"
   points="480.9,200.4 484.5,200.7 494.5,199.9 498.4,200.4    502.4,199.9 512.3,200.7 515.9,200.4  "
   id="polyline652" />
	<polyline
   style="fill:none;stroke:#000000;stroke-miterlimit:10;"
   points="480.9,200.4 484.5,200.7 494.5,202.8 498.4,203.6    502.4,202.8 512.3,200.7 515.9,200.4  "
   id="polyline654" />
	<circle
   id="rightTop0"
   cx="478.7"
   cy="117.6"
   r="0.8" />
	<circle
   id="rightTop1"
   cx="466.1"
   cy="127.1"
   r="0.8" />
</g>
<polygon
   id="polygon650-3"
   points="509,197 515.9,200.4 509.5,206.7 502.4,209.5 498.4,210 494.3,209.5 487.3,206.7 480.9,200.4 487.8,197 494.3,195.9 498.4,196.8 502.6,195.9 "
   style="fill:none;stroke:#000000;stroke-miterlimit:10"
   transform="translate(-0.5,9.7)" /></svg>
