<?xml version="1.0" standalone="no"?>
<!DOCTYPE svg PUBLIC "-//W3C//DTD SVG 20010904//EN"
 "http://www.w3.org/TR/2001/REC-SVG-20010904/DTD/svg10.dtd">
<svg version="1.0" xmlns="http://www.w3.org/2000/svg"
 width="645.000000pt" height="1280.000000pt" viewBox="0 0 645.000000 1280.000000"
 preserveAspectRatio="xMidYMid meet">
<metadata>
Created by potrace 1.15, written by Peter Selinger 2001-2017
</metadata>
<g transform="translate(0.000000,1280.000000) scale(0.100000,-0.100000)"
fill="#000000" stroke="none">
<path d="M3321 12783 c-52 -8 -111 -23 -131 -33 -24 -12 -41 -15 -51 -9 -26
16 -86 9 -171 -20 -46 -16 -108 -34 -138 -41 -79 -18 -240 -134 -420 -302
-137 -128 -149 -142 -175 -205 -15 -37 -33 -72 -41 -76 -9 -5 -20 -20 -25 -35
-22 -59 -99 -424 -99 -472 0 -69 45 -197 82 -232 34 -32 37 -72 7 -90 -12 -7
-39 -50 -60 -94 -36 -75 -39 -89 -39 -166 0 -109 16 -160 84 -267 30 -48 60
-107 65 -132 24 -108 72 -170 148 -191 l41 -12 7 -100 c7 -122 31 -260 51
-300 8 -16 14 -53 14 -81 l0 -52 -52 -19 c-39 -14 -58 -28 -73 -53 -11 -19
-44 -60 -74 -92 -43 -47 -77 -71 -172 -119 l-117 -60 -18 -52 c-32 -97 -83
-197 -155 -304 -39 -58 -67 -109 -62 -113 4 -4 69 -34 143 -66 74 -33 137 -61
140 -62 2 -2 -98 -106 -223 -231 l-227 -227 815 -1190 c449 -655 819 -1191
823 -1192 4 -1 114 130 244 290 130 161 301 371 380 468 79 97 193 239 253
317 61 77 113 141 118 141 4 1 7 -11 7 -26 0 -21 -74 -120 -313 -418 -344
-430 -641 -796 -725 -892 l-54 -63 2 -1121 1 -1120 30 -152 c123 -619 292
-1083 565 -1559 111 -194 239 -380 524 -768 139 -189 291 -399 336 -466 l84
-122 145 -7 c80 -4 147 -6 149 -4 2 2 50 202 107 444 97 412 106 444 142 501
30 48 50 67 86 83 l47 22 129 -47 c267 -96 400 -165 500 -256 l56 -51 24 24
c26 26 29 42 150 724 75 422 124 698 161 904 21 118 36 236 38 300 2 58 6 239
10 401 5 219 11 311 23 355 13 51 15 102 9 345 -4 165 -13 324 -22 378 -8 50
-14 131 -13 180 0 55 -7 120 -20 178 -11 50 -20 119 -21 155 0 35 0 199 0 364
0 165 -3 309 -7 320 -3 11 -17 36 -30 57 -24 36 -26 50 -55 495 -24 364 -27
465 -18 491 8 23 9 81 4 200 -6 146 -11 178 -36 251 -15 47 -28 94 -28 105 0
10 13 47 30 81 l30 61 -15 410 c-9 225 -20 439 -26 475 -9 58 -20 81 -102 204
-51 76 -108 151 -127 166 -22 18 -125 61 -287 119 -636 227 -756 271 -872 319
-68 28 -126 50 -128 48 -2 -2 51 -115 117 -252 67 -136 119 -253 116 -259 -2
-6 -40 -26 -85 -45 -45 -19 -81 -37 -81 -40 0 -4 68 -62 150 -130 83 -68 150
-130 150 -138 0 -26 -59 -153 -116 -251 -70 -120 -252 -386 -407 -594 -97
-130 -122 -158 -142 -158 -14 0 -25 3 -25 6 0 3 26 40 58 82 97 128 233 319
343 482 105 158 259 408 259 421 0 5 -72 72 -160 150 -88 78 -160 142 -160
144 0 2 41 22 90 46 50 23 90 47 90 53 0 6 -62 143 -138 304 l-137 294 -160
86 c-129 70 -172 99 -223 151 -35 35 -66 61 -69 57 -4 -3 -14 1 -24 10 -10 9
-35 22 -55 29 -38 13 -38 13 -35 61 1 27 7 54 12 60 26 32 48 132 55 246 9
160 22 201 88 260 29 25 57 61 63 80 6 18 20 58 32 89 36 99 91 399 91 498 l0
89 -44 39 c-49 43 -51 61 -15 139 15 33 20 74 25 220 6 166 5 191 -21 344 -28
170 -63 271 -148 433 -36 69 -202 219 -268 242 -56 20 -93 20 -85 0 16 -44
-71 16 -110 75 -31 46 -55 57 -164 70 -103 12 -130 12 -249 -7z m399 -483 c20
-16 53 -49 72 -72 l35 -43 -7 -105 -7 -105 68 -105 c64 -100 129 -240 129
-278 0 -10 -16 -57 -35 -105 -19 -48 -35 -96 -35 -106 0 -11 32 -62 71 -113
39 -50 73 -105 76 -120 7 -35 28 -36 62 -4 15 13 54 32 88 43 59 19 64 19 78
3 20 -23 20 -185 -1 -260 -8 -30 -30 -121 -48 -202 -35 -157 -46 -178 -128
-243 -61 -49 -70 -78 -78 -264 -6 -144 -10 -172 -29 -211 -25 -48 -445 -471
-514 -516 -49 -32 -167 -48 -313 -42 -93 4 -119 9 -151 28 -53 32 -458 434
-498 495 -47 72 -71 162 -91 332 -9 81 -20 155 -25 164 -4 9 -30 22 -56 29
-60 16 -101 53 -109 99 -4 20 -12 47 -20 61 -7 14 -15 36 -18 50 -3 14 -21 43
-41 64 -30 33 -38 53 -55 135 -23 111 -20 158 17 244 28 62 47 71 78 37 10
-11 24 -20 32 -20 7 0 20 -24 29 -57 9 -33 30 -75 49 -97 l33 -39 33 37 c19
21 46 58 61 83 l26 45 -24 71 c-13 39 -29 74 -35 77 -6 4 -7 18 -4 33 6 21 37
43 163 113 87 48 177 99 201 115 l44 27 41 -21 40 -21 125 43 c72 24 176 70
241 106 78 43 139 69 188 80 63 15 76 21 99 53 15 20 48 60 73 87 62 68 130
194 130 241 0 31 -9 46 -55 95 -30 32 -55 65 -55 73 0 22 7 20 50 -14z m-960
-2623 c265 -263 292 -281 435 -292 50 -4 137 -2 195 4 85 9 112 16 145 38 83
55 204 165 330 301 72 77 133 141 138 141 4 1 7 -36 7 -81 l0 -83 -178 -185
c-97 -102 -239 -238 -315 -302 l-138 -118 -71 0 -72 0 -275 207 c-152 114
-311 242 -353 284 l-78 77 0 116 c0 64 1 116 3 116 1 0 103 -100 227 -223z
m-327 141 c-19 -24 -21 -72 -6 -103 33 -64 169 -191 351 -329 103 -78 230
-176 282 -217 52 -40 107 -83 122 -94 l27 -20 -174 -408 c-95 -225 -175 -411
-178 -414 -3 -2 -16 3 -29 11 -39 26 -323 668 -423 956 -56 163 -57 167 -62
300 -4 119 -1 145 19 220 18 68 28 87 48 97 31 16 35 16 23 1z m42 -126 c-20
-20 -33 86 -14 119 13 22 14 19 17 -45 2 -37 0 -71 -3 -74z m1631 110 c15 -12
34 -61 63 -161 l42 -143 -30 -102 c-16 -55 -57 -211 -91 -346 -77 -306 -141
-500 -215 -658 -32 -67 -61 -122 -64 -122 -25 2 -62 74 -206 411 -91 210 -165
386 -165 390 0 5 51 54 113 109 131 119 512 518 521 547 4 11 0 33 -9 49 -8
16 -15 32 -15 37 0 13 35 7 56 -11z m141 -629 c-13 -562 -95 -1052 -283 -1698
-59 -202 -241 -755 -252 -767 -4 -4 -51 365 -105 820 -54 455 -104 838 -110
851 -7 14 -32 37 -56 53 -60 38 -126 38 -198 2 -105 -54 -87 28 -197 -899 -53
-451 -97 -828 -96 -837 1 -54 -25 8 -98 235 -234 723 -392 1392 -476 2012 -23
170 -25 213 -10 169 110 -304 231 -579 348 -789 86 -155 90 -161 126 -170 24
-6 30 3 122 187 l96 193 31 -68 30 -67 47 30 c70 44 138 64 196 57 56 -7 121
-40 143 -74 9 -13 19 -23 23 -23 4 0 20 38 36 85 16 47 32 88 35 90 4 2 49
-86 101 -196 52 -109 96 -199 98 -199 40 0 145 205 220 433 38 114 222 797
222 823 0 2 3 4 7 4 3 0 3 -116 0 -257z m1003 -4818 c10 -19 12 -60 6 -180 -6
-152 -6 -157 25 -272 29 -111 31 -130 39 -377 7 -234 6 -272 -11 -365 -11 -58
-19 -109 -19 -114 0 -5 -16 10 -36 34 l-35 42 2 304 c2 292 1 305 -19 326
l-20 22 21 303 c12 166 24 302 28 302 3 0 12 -11 19 -25z"/>
<path
   style="fill: red"
   d="M2667 11283 c-20 -5 -117 -129 -117 -150 0 -18 1 -17 72 30 69 47
      106 56 183 45 69 -10 329 -37 332 -34 1 1 -9 18 -22 38 l-25 37 -87 4 c-83 4
      -229 19 -290 30 -15 3 -36 3 -46 0z"/>
<path d="M3670 11274 c-36 -9 -105 -18 -155 -22 l-90 -7 -17 -35 c-15 -29 -15
-36 -4 -42 15 -9 217 15 276 32 53 15 145 13 160 -5 6 -8 37 -27 68 -42 32
-15 60 -29 65 -31 17 -9 5 48 -12 58 -11 5 -28 24 -38 40 -9 17 -26 30 -36 30
-10 0 -28 7 -41 15 -34 22 -103 26 -176 9z"/>
<path d="M4249 11151 c-20 -8 -94 -93 -114 -131 -22 -43 -19 -86 7 -104 26
-19 47 -21 30 -4 -15 15 -15 77 1 104 16 28 75 94 83 94 4 0 16 -7 26 -17 17
-15 18 -14 18 19 0 37 -18 51 -51 39z"/>
<path d="M2175 11103 c-27 -26 -16 -126 19 -186 37 -62 43 -55 11 14 -24 52
-32 110 -19 143 12 30 50 18 94 -30 41 -45 42 -48 37 -96 -4 -28 -12 -56 -18
-64 -17 -21 5 -17 24 4 11 12 17 36 17 66 0 49 -6 60 -82 144 -24 26 -60 29
-83 5z"/>
<path d="M4239 11029 c4 -12 3 -47 -3 -78 -15 -87 -14 -146 4 -146 11 0 15 12
16 40 1 22 7 66 13 98 11 50 10 61 -3 83 -20 30 -38 32 -27 3z"/>
<path d="M2726 10907 c-89 -32 -126 -77 -73 -91 34 -9 36 -8 34 21 -2 23 3 28
40 39 l42 12 7 -31 c10 -47 22 -57 69 -57 49 0 80 24 46 35 -30 9 -26 22 9 30
24 5 42 -1 91 -30 33 -21 63 -34 66 -31 8 7 -66 86 -81 86 -5 0 -17 7 -26 15
-9 8 -46 17 -86 20 -57 5 -81 2 -138 -18z"/>
<path d="M3515 10889 c-25 -23 -45 -50 -45 -61 0 -18 4 -17 35 11 43 37 67 39
89 7 22 -34 68 -42 106 -20 28 17 29 19 10 26 -25 9 -26 25 -1 33 12 4 43 -6
80 -25 75 -38 83 -20 14 34 -46 36 -47 36 -145 36 l-98 0 -45 -41z"/>
<path d="M3156 10912 c-3 -5 1 -15 8 -21 8 -7 17 -30 21 -52 9 -53 29 -51 22
2 -6 42 -39 90 -51 71z"/>
<path d="M2327 10845 c-22 -46 -21 -57 6 -98 12 -19 27 -43 33 -53 7 -11 15
-16 19 -12 4 4 -5 28 -20 54 -23 40 -26 53 -21 95 4 27 5 49 3 49 -2 0 -11
-16 -20 -35z"/>
<path d="M4137 10864 c-3 -4 6 -22 20 -41 l27 -35 -18 -47 c-30 -78 -30 -82
-12 -75 20 8 56 74 56 103 0 20 -48 101 -60 101 -4 0 -9 -3 -13 -6z"/>
<path d="M3900 10850 c-12 -8 -11 -10 7 -10 12 0 25 5 28 10 8 13 -15 13 -35
0z"/>
<path d="M3736 10785 c-14 -11 -17 -18 -10 -25 8 -8 15 -6 24 5 7 8 18 15 26
15 7 0 16 5 19 10 10 15 -38 11 -59 -5z"/>
<path d="M3087 10333 c-15 -14 -5 -23 26 -23 19 0 50 -13 77 -31 39 -27 51
-30 89 -25 25 3 55 15 67 26 11 12 38 23 58 27 20 3 39 10 42 14 9 16 -44 10
-98 -11 -69 -26 -95 -25 -160 5 -53 25 -89 31 -101 18z"/>
<path d="M2834 10210 c-22 -9 -42 -49 -45 -90 -3 -48 2 -45 36 25 18 38 33 70
32 71 -1 1 -11 -2 -23 -6z"/>
<path d="M3565 10077 c-39 -21 -68 -23 -312 -26 -23 -1 -53 -5 -68 -11 -34
-13 -210 5 -248 26 -26 15 -27 14 -37 -11 -13 -34 -4 -48 20 -33 16 10 37 9
104 -5 46 -9 118 -17 160 -17 43 0 86 -5 97 -10 13 -8 25 -7 42 1 12 7 66 16
119 20 57 3 105 12 114 20 13 10 17 10 24 -1 4 -7 15 -10 24 -7 17 7 20 30 8
58 -6 15 -11 14 -47 -4z"/>
<path d="M3465 9953 c-36 -25 -52 -28 -172 -35 -127 -7 -134 -7 -184 17 -59
27 -71 25 -43 -6 48 -53 132 -63 305 -39 58 8 76 16 101 40 16 17 34 30 39 30
5 0 9 5 9 10 0 16 -12 12 -55 -17z"/>
<path d="M1575 9255 c-159 -61 -441 -169 -625 -240 -488 -187 -550 -221 -596
-324 -13 -29 -56 -202 -95 -384 -81 -376 -81 -379 -23 -511 l35 -80 -19 -36
c-19 -34 -19 -41 -6 -205 15 -186 11 -278 -27 -567 l-21 -157 40 -115 39 -115
-30 -53 c-28 -51 -29 -55 -18 -110 10 -47 9 -68 -4 -117 -24 -94 -43 -248 -55
-461 -10 -161 -16 -207 -36 -263 -23 -67 -24 -76 -24 -390 -1 -242 -4 -331
-14 -357 -98 -259 -111 -333 -77 -470 12 -47 32 -185 46 -306 13 -122 34 -297
45 -390 14 -110 19 -192 15 -235 -8 -91 17 -232 71 -393 24 -71 44 -143 44
-159 0 -16 12 -76 27 -133 l27 -104 -30 -100 -31 -99 131 -500 131 -501 50
-34 c79 -52 194 -97 217 -85 11 6 21 9 23 7 2 -2 -5 -62 -14 -134 -10 -72 -14
-140 -10 -150 4 -10 8 -63 8 -117 1 -84 -2 -104 -23 -145 -23 -46 -24 -56 -31
-386 l-7 -338 408 6 c225 4 774 11 1219 16 2004 25 2438 30 2858 36 l447 7 0
83 c0 46 5 96 12 111 7 15 110 175 230 355 120 180 218 330 218 332 0 5 -867
456 -877 456 -4 0 -60 -195 -123 -433 l-116 -432 -168 -3 -168 -2 -32 32 c-29
31 -460 657 -902 1313 -158 232 -194 280 -219 288 -30 8 -301 2 -328 -8 -7 -3
-22 -23 -31 -43 -10 -20 -54 -102 -98 -182 -289 -519 -550 -883 -881 -1227
-134 -138 -186 -178 -219 -170 -13 4 -271 227 -573 496 l-550 490 -30 -34
c-30 -34 -31 -35 -75 -24 -25 6 -54 22 -66 36 -20 23 -20 28 -7 102 8 51 30
115 61 182 27 57 53 115 60 129 9 20 11 4 11 -85 1 -85 5 -117 19 -142 19 -36
1135 -1063 1155 -1063 15 0 354 340 469 472 276 315 509 686 649 1034 79 199
199 600 199 667 0 11 -47 229 -105 485 l-105 466 0 1082 0 1081 65 74 c36 41
63 79 61 85 -2 7 -374 553 -826 1214 l-822 1203 73 76 c41 42 132 135 203 208
72 73 128 134 126 136 -3 3 -59 37 -125 77 -66 40 -124 77 -129 81 -5 4 37 74
93 155 56 80 100 148 99 149 -2 1 -133 -48 -293 -110z m-197 -4881 c11 -47 10
-60 -18 -164 -16 -62 -31 -114 -33 -117 -3 -2 -16 -1 -29 2 -25 6 -25 8 -31
143 -8 154 -4 179 27 185 57 12 70 5 84 -49z"/>
</g>
</svg>
