<?xml version="1.0" standalone="no"?>
<!DOCTYPE svg PUBLIC "-//W3C//DTD SVG 20010904//EN"
 "http://www.w3.org/TR/2001/REC-SVG-20010904/DTD/svg10.dtd">
<svg version="1.0" xmlns="http://www.w3.org/2000/svg"
 width="1242.000000pt" height="1280.000000pt" viewBox="0 0 1242.000000 1280.000000"
 preserveAspectRatio="xMidYMid meet">
<metadata>
Created by potrace 1.15, written by Peter Selinger 2001-2017
</metadata>
<g transform="translate(0.000000,1280.000000) scale(0.100000,-0.100000)"
fill="#000000" stroke="none">
<path d="M6255 12771 c-259 -70 -487 -167 -568 -243 -59 -55 -244 -319 -256
-367 -13 -46 -31 -312 -31 -441 0 -84 4 -110 29 -177 53 -142 48 -136 106
-129 27 3 87 9 132 12 78 7 85 5 123 -20 46 -30 74 -81 115 -206 15 -47 32
-90 39 -97 6 -6 39 -15 73 -19 l62 -6 10 43 c20 81 36 122 51 130 8 4 46 15
83 24 77 20 119 50 147 105 27 53 64 81 176 131 99 43 99 43 249 49 134 5 159
9 235 37 103 37 181 50 367 59 85 4 146 11 152 18 4 6 19 43 32 81 34 100 34
280 1 377 -26 75 -100 187 -158 238 -107 94 -308 199 -614 322 -188 76 -265
98 -360 104 -72 4 -101 0 -195 -25z"/>
<path d="M7345 11624 c-113 -14 -190 -30 -260 -56 -65 -23 -117 -33 -274 -49
-167 -17 -204 -24 -265 -50 -80 -34 -100 -50 -146 -117 -45 -66 -92 -99 -158
-112 -91 -18 -84 -11 -117 -132 l-16 -58 -68 0 c-99 0 -125 12 -149 68 -11 26
-24 61 -28 77 -11 45 -52 137 -72 158 -9 11 -27 23 -39 28 -25 9 -238 -7 -263
-21 -23 -12 -50 -107 -50 -173 0 -62 27 -147 96 -297 34 -75 45 -115 55 -190
14 -115 5 -341 -17 -455 -30 -148 -30 -179 5 -249 65 -132 178 -239 426 -404
277 -184 338 -191 555 -67 l100 57 133 8 c190 12 249 40 262 127 11 72 31 119
108 247 69 116 72 124 76 194 3 71 4 73 35 86 41 17 94 71 102 103 4 14 4 69
0 122 -9 125 0 164 84 390 l70 188 0 292 0 291 -77 -1 c-43 -1 -91 -4 -108 -5z"/>
<path d="M5477 10092 c-13 -14 -17 -38 -17 -103 0 -131 18 -307 40 -386 40
-147 118 -327 180 -416 33 -47 60 -90 60 -95 0 -16 81 -122 93 -122 7 0 53 48
102 106 50 59 140 153 200 211 129 121 133 102 -41 201 -166 95 -288 187 -399
297 -107 107 -157 180 -176 260 -16 64 -22 70 -42 47z"/>
<path d="M5358 9980 c-150 -149 -1104 -526 -1548 -611 -84 -16 -109 -41 -138
-139 -13 -41 -59 -187 -102 -325 -94 -296 -170 -563 -240 -845 -53 -217 -127
-436 -267 -795 -99 -256 -259 -648 -333 -820 -76 -175 -89 -218 -110 -343 -17
-103 -24 -123 -86 -240 -86 -162 -212 -378 -329 -562 -385 -607 -587 -915
-1044 -1589 -177 -261 -320 -479 -318 -485 2 -5 46 -22 98 -37 123 -35 190
-61 384 -149 247 -112 275 -128 351 -201 39 -38 75 -69 80 -69 8 0 229 296
425 569 43 61 177 256 298 435 121 179 293 428 382 553 276 387 409 592 524
808 32 61 110 205 173 320 211 383 296 571 509 1125 48 123 72 154 87 113 4
-9 21 -81 37 -158 16 -77 41 -192 55 -255 20 -90 27 -164 35 -339 11 -262 3
-389 -40 -642 -92 -533 -189 -912 -374 -1449 -162 -470 -255 -702 -401 -1001
-47 -97 -86 -185 -86 -196 0 -21 126 -131 280 -245 123 -91 171 -107 216 -70
56 44 349 444 399 542 18 36 70 130 115 210 118 211 529 1036 579 1165 24 61
63 180 87 265 60 210 83 278 180 542 123 333 143 422 165 718 9 128 31 2528
33 3665 1 384 -7 587 -22 583 -4 -1 -28 -22 -54 -48z"/>
<path d="M7162 9887 c-36 -51 -58 -105 -66 -166 -4 -24 -13 -56 -21 -72 -13
-25 -14 -95 -5 -546 5 -285 14 -905 20 -1378 17 -1469 38 -1675 215 -2195 142
-415 221 -580 469 -983 95 -155 240 -392 321 -527 157 -260 368 -598 557 -895
172 -270 282 -454 333 -555 27 -54 50 -88 56 -84 14 8 8 61 -37 324 -72 420
-109 583 -309 1365 -112 440 -210 836 -219 880 -27 148 -38 362 -33 656 l5
284 65 418 c37 231 71 425 78 433 16 20 34 3 60 -55 55 -125 203 -529 294
-806 113 -339 161 -451 282 -655 44 -74 140 -240 213 -369 72 -128 173 -304
224 -390 51 -86 114 -196 141 -246 26 -49 81 -146 120 -215 80 -138 174 -323
255 -500 134 -295 212 -453 332 -677 71 -133 137 -251 146 -262 17 -21 18 -20
152 56 74 42 241 122 370 178 129 56 273 124 320 152 76 44 85 53 83 77 -1 15
-150 318 -331 674 -182 356 -413 814 -515 1017 -102 204 -246 489 -322 635
-244 474 -315 638 -510 1185 -142 397 -170 465 -262 620 -39 66 -78 145 -87
175 -10 33 -22 144 -31 276 -23 351 -51 500 -122 657 -73 160 -489 953 -572
1091 -21 35 -50 68 -70 80 -36 21 -45 23 -706 182 -709 170 -852 204 -859 204
-1 0 -17 -19 -34 -43z"/>
<path d="M6950 9564 c-21 -8 -80 -13 -147 -13 -108 -1 -113 -2 -175 -36 -34
-19 -96 -51 -135 -72 -40 -20 -73 -41 -73 -45 0 -4 87 -66 193 -137 105 -71
216 -150 245 -175 30 -25 58 -46 63 -46 27 0 69 196 88 410 12 139 11 141 -59
114z"/>
<path d="M5480 9453 c0 -32 -5 -267 -11 -523 -6 -256 -12 -1021 -14 -1700 -3
-1237 -10 -1537 -40 -1709 -22 -127 -58 -250 -134 -457 -38 -104 -72 -205 -76
-225 -7 -36 -6 -37 31 -49 45 -15 262 -8 474 15 186 20 240 19 370 -10 62 -14
124 -25 137 -25 l23 0 0 173 c0 94 -5 521 -10 948 -8 659 -13 806 -30 970 -23
218 -24 339 -10 661 5 123 19 439 30 703 24 553 35 714 56 763 23 56 17 75
-51 166 -58 76 -68 85 -85 76 -27 -15 -88 -78 -181 -190 -44 -53 -93 -104
-110 -114 -29 -17 -31 -17 -49 -1 -11 10 -34 43 -51 74 -17 31 -58 96 -91 145
-64 94 -111 189 -148 299 -12 37 -24 67 -26 67 -2 0 -4 -26 -4 -57z"/>
<path d="M6285 9371 c-39 -23 -85 -77 -85 -100 0 -17 14 -39 89 -135 49 -64
52 -81 23 -159 -31 -81 -39 -205 -77 -1087 -27 -645 -28 -761 -11 -945 10
-110 19 -376 26 -765 21 -1265 43 -1869 76 -2141 5 -46 7 -48 65 -73 78 -36
143 -43 194 -22 71 30 114 66 125 105 20 71 11 472 -40 1951 -44 1282 -50
1442 -60 1855 -6 237 -15 498 -20 580 -9 151 -9 151 -82 370 l-73 220 4 110
c1 61 4 127 5 149 1 36 -3 41 -48 72 -55 39 -70 41 -111 15z"/>
<path d="M6476 9253 c-19 -119 -1 -224 82 -479 27 -83 52 -178 56 -210 3 -32
11 -246 16 -474 6 -228 17 -599 25 -825 8 -225 28 -813 45 -1305 35 -1060 41
-1185 50 -1201 5 -7 64 -17 151 -25 79 -7 196 -20 259 -28 96 -13 391 -36 467
-36 19 0 16 8 -35 93 -166 275 -382 857 -467 1257 -33 159 -41 339 -55 1215
-19 1268 -30 1860 -37 1955 l-6 95 -17 -101 c-21 -121 -48 -214 -64 -214 -6 0
-56 37 -111 81 -105 84 -327 239 -343 239 -5 0 -12 -17 -16 -37z"/>
<path d="M5705 4768 c-98 -9 -489 -16 -519 -8 -16 4 -24 -14 -61 -150 -55
-196 -113 -362 -170 -490 -66 -147 -472 -956 -509 -1015 -18 -27 -52 -88 -76
-135 l-45 -85 1 -135 c1 -186 17 -256 178 -771 63 -204 135 -462 275 -994 88
-335 180 -666 242 -877 l20 -68 668 0 c367 0 729 3 805 7 l137 6 -7 101 c-3
56 -12 162 -21 236 -30 278 -34 370 -42 995 -5 352 -12 650 -16 661 -11 35 9
36 58 3 127 -84 256 -251 425 -549 46 -80 129 -208 186 -285 56 -77 181 -252
276 -390 95 -137 199 -282 230 -321 32 -39 65 -85 73 -101 9 -16 23 -35 31
-42 26 -22 19 -45 -49 -176 -36 -68 -65 -127 -65 -131 0 -7 221 -2 1030 22
267 7 518 14 558 14 l74 0 -7 482 -7 483 -53 240 c-88 398 -176 720 -270 995
-56 162 -92 242 -175 386 -64 111 -110 186 -452 729 -107 171 -311 501 -453
735 -142 234 -266 437 -276 451 -22 32 -90 45 -312 59 -178 12 -231 17 -350
35 -48 8 -133 17 -189 21 l-101 7 6 -219 c8 -265 -3 -471 -27 -505 -9 -13 -53
-45 -98 -70 l-83 -46 -101 34 c-56 19 -109 39 -118 46 -26 19 -33 71 -50 372
-9 154 -19 308 -22 342 l-5 61 -52 7 c-29 4 -96 15 -150 26 -104 20 -194 22
-342 7z"/>
<path d="M792 3076 c-89 -105 -200 -201 -317 -273 -126 -78 -225 -155 -284
-219 -122 -133 -191 -329 -191 -539 0 -118 31 -163 122 -179 41 -8 60 -33 71
-96 14 -75 81 -270 93 -270 33 0 68 28 90 73 17 33 30 47 42 45 10 -2 35 -39
60 -91 35 -70 51 -91 77 -104 62 -30 103 -1 114 82 7 50 32 57 71 20 33 -31
59 -28 85 11 15 23 15 37 4 139 -10 88 -10 141 -2 232 16 159 62 431 79 465
33 65 192 98 258 54 26 -16 28 -22 24 -65 -3 -29 -29 -100 -66 -183 -84 -183
-83 -255 1 -307 82 -51 127 -20 205 142 80 165 122 314 122 440 0 54 -9 93
-41 189 -41 117 -42 123 -36 213 6 81 4 95 -11 108 -52 47 -413 197 -474 197
-18 0 -43 -22 -96 -84z"/>
<path d="M11517 3019 c-37 -21 -134 -68 -215 -105 -330 -148 -332 -150 -332
-240 0 -33 -12 -91 -31 -150 l-32 -96 12 -133 c7 -73 19 -163 27 -201 9 -38
28 -137 44 -221 16 -83 34 -161 40 -172 13 -26 33 -26 85 -2 100 46 113 102
66 295 -17 70 -31 141 -31 156 0 46 40 140 74 176 56 58 64 56 169 -50 117
-118 248 -309 277 -403 24 -79 25 -121 4 -232 -19 -99 -14 -180 16 -229 26
-42 42 -40 74 8 14 22 30 40 34 40 5 0 23 -16 42 -35 19 -19 38 -35 43 -35 5
0 28 16 50 36 41 37 53 39 124 18 46 -13 124 106 138 211 10 78 25 125 38 125
6 0 31 -19 54 -42 37 -37 45 -40 57 -28 25 27 76 230 76 304 0 44 -36 168 -66
227 -14 28 -51 76 -82 108 -31 31 -111 124 -177 205 -142 175 -298 328 -384
376 -85 48 -111 69 -111 88 -1 40 -15 40 -83 1z"/>
<path d="M5243 3 c20 -2 54 -2 75 0 20 2 3 4 -38 4 -41 0 -58 -2 -37 -4z"/>
</g>
</svg>
